<svg width="32" height="32" xmlns="http://www.w3.org/2000/svg"><g fill="none" fill-rule="evenodd"><path d="M0 0h32v32H0z"/><g fill="#00ABAF" fill-rule="nonzero"><path d="M8.572 14.859h2.287v-1.144c0-.631.513-1.143 1.141-1.143.63 0 1.143.512 1.143 1.143 0 1.116-2.199 4.009-4.238 6.05a1.141 1.141 0 0 0 .808 1.95l5.714.001v-2.284h-3.111c1.423-1.683 3.112-4.027 3.112-5.716A3.431 3.431 0 0 0 12 10.288a3.431 3.431 0 0 0-3.428 3.428v1.143Z"/><path d="M21.473 10.336a1.143 1.143 0 0 0-1.282.459l-4.571 6.857a1.145 1.145 0 0 0 .95 1.779H20v2.282h2.285v-2.282h1.143v-2.287h-1.143v-5.713c0-.506-.328-.951-.812-1.095ZM20 17.144h-1.293L20 15.203v1.941Z"/><path d="M16-.001c-1.383 0-2.719.193-4 .526v2.756a13.266 13.266 0 0 1 4-.614c7.352 0 13.333 5.981 13.333 13.333 0 7.353-5.981 13.333-13.333 13.333S2.667 23.353 2.667 16c0-3.719 1.536-7.075 4-9.493v4.158h2.666V2.667h-8v2.666h2.771C1.56 8.164 0 11.9 0 16c0 8.823 7.177 16 16 16s16-7.177 16-16S24.823-.001 16-.001Z"/></g></g></svg>