<svg width="20" height="20" xmlns="http://www.w3.org/2000/svg"><g fill="none" fill-rule="evenodd"><path d="M0 .003h20v20H0z"/><g fill="#00ABAF" fill-rule="nonzero"><path d="M16.667 1.667h-7.5c-.92 0-1.667.748-1.667 1.666V5c0 .918.747 1.667 1.667 1.667h7.5c.92 0 1.666-.748 1.666-1.667V3.333c0-.918-.746-1.666-1.666-1.666ZM16.667 7.5h-7.5c-.92 0-1.667.748-1.667 1.667v1.666c0 .919.747 1.667 1.667 1.667h7.5c.92 0 1.666-.748 1.666-1.667V9.167c0-.919-.746-1.667-1.666-1.667ZM16.667 13.333h-7.5c-.92 0-1.667.749-1.667 1.667v1.667c0 .919.747 1.666 1.667 1.666h7.5c.92 0 1.666-.747 1.666-1.666V15c0-.918-.746-1.667-1.666-1.667ZM5 1.667H3.333c-.919 0-1.666.748-1.666 1.666V5c0 .918.747 1.667 1.666 1.667H5c.92 0 1.667-.748 1.667-1.667V3.333c0-.918-.748-1.666-1.667-1.666ZM5 7.5H3.333c-.919 0-1.666.748-1.666 1.667v1.666c0 .919.747 1.667 1.666 1.667H5c.92 0 1.667-.748 1.667-1.667V9.167C6.667 8.248 5.919 7.5 5 7.5ZM5 13.333H3.333c-.919 0-1.666.749-1.666 1.667v1.667c0 .919.747 1.666 1.666 1.666H5c.92 0 1.667-.747 1.667-1.666V15c0-.918-.748-1.667-1.667-1.667Z"/></g></g></svg>