<svg width="20" height="20" xmlns="http://www.w3.org/2000/svg"><g fill="none" fill-rule="evenodd"><path d="M0 0h20v20H0z"/><path d="M17.5 2.5h-1.667V.833h-1.666V5H12.5V2.5h-5V.833H5.833V5H4.167V2.5H2.5c-.92 0-1.667.748-1.667 1.667v12.5c0 .918.748 1.666 1.667 1.666h15c.92 0 1.667-.748 1.667-1.666v-12.5c0-.92-.748-1.667-1.667-1.667ZM6.667 15.833H3.333V12.5h3.334v3.333Zm0-5H3.333V7.5h3.334v3.333Zm5 5H8.333V12.5h3.334v3.333Zm0-5H8.333V7.5h3.334v3.333Zm5 0h-3.334V7.5h3.334v3.333Z" fill="#00ABAF" fill-rule="nonzero"/></g></svg>