<svg xmlns="http://www.w3.org/2000/svg" width="16" height="16"><g fill="none" fill-rule="evenodd"><path d="M0 0h16v16H0z"/><g fill="#BFC1C1" fill-rule="nonzero"><path d="M13.16 3.785 8.942 8l4.216 4.215A6.633 6.633 0 0 0 14.667 8a6.636 6.636 0 0 0-1.508-4.215ZM8 7.058l4.217-4.216A6.632 6.632 0 0 0 8 1.333a6.633 6.633 0 0 0-4.216 1.508l4.217 4.217ZM7.058 8 2.841 3.786A6.63 6.63 0 0 0 1.333 8c0 1.599.567 3.067 1.508 4.217L7.058 8ZM8 8.943 3.785 13.16A6.638 6.638 0 0 0 8 14.667a6.636 6.636 0 0 0 4.216-1.508L8.001 8.943Z"/></g></g></svg>