<svg width="16" height="16" xmlns="http://www.w3.org/2000/svg"><g fill="none" fill-rule="evenodd"><path d="M0 0h16v16H0z"/><path d="M8.028 14.667A6.674 6.674 0 0 1 1.361 8a6.674 6.674 0 0 1 6.667-6.667A6.674 6.674 0 0 1 14.695 8a6.674 6.674 0 0 1-6.667 6.667Zm0-12A5.34 5.34 0 0 0 2.695 8a5.34 5.34 0 0 0 5.333 5.333A5.34 5.34 0 0 0 13.361 8a5.34 5.34 0 0 0-5.333-5.333Z" fill="#3C0" fill-rule="nonzero"/><path fill="#3C0" fill-rule="nonzero" d="M7.467 11.285 4.772 8.59 5.95 7.411l1.305 1.304 2.761-3.866 1.357.969z"/></g></svg>