<svg width="16" height="16" xmlns="http://www.w3.org/2000/svg"><g fill="none" fill-rule="evenodd"><path d="M0 0h16v16H0z"/><path d="M8.028 14.667A6.674 6.674 0 0 1 1.361 8a6.674 6.674 0 0 1 6.667-6.667A6.674 6.674 0 0 1 14.695 8a6.674 6.674 0 0 1-6.667 6.667Zm0-12A5.34 5.34 0 0 0 2.695 8a5.34 5.34 0 0 0 5.333 5.333A5.34 5.34 0 0 0 13.361 8a5.34 5.34 0 0 0-5.333-5.333Z" fill="#E50915" fill-rule="nonzero"/><path fill="#E50915" fill-rule="nonzero" d="m11.166 5.805-.943-.943-2.195 2.195-2.195-2.195-.944.943L7.085 8l-2.196 2.195.944.943 2.195-2.195 2.195 2.195.943-.943L8.971 8z"/></g></svg>