<svg width="20" height="20" xmlns="http://www.w3.org/2000/svg"><g fill="none" fill-rule="evenodd"><path d="M-.002 0h20.001v20.001H-.002z"/><path d="M16.152 1.73a.833.833 0 0 0-.908.18c-.82.822-1.63 1.238-2.404 1.238-1.277 0-2.168-1.14-2.173-1.148a.836.836 0 0 0-.664-.332c-.229-.016-.507.122-.667.328-.009.012-.9 1.152-2.175 1.152-.775 0-1.584-.416-2.405-1.237a.834.834 0 0 0-1.423.589v9.167c0 3.173 5.636 6.232 6.279 6.57a.831.831 0 0 0 .776 0c.643-.338 6.279-3.397 6.279-6.57V2.5a.834.834 0 0 0-.515-.77Zm-2.819 9.103h-2.5v2.5H9.167v-2.5h-2.5V9.167h2.5v-2.5h1.666v2.5h2.5v1.666Z" fill="#ddd" fill-rule="nonzero"/></g></svg>