<svg width="24" height="24" xmlns="http://www.w3.org/2000/svg"><g fill="none" fill-rule="evenodd"><circle fill="#FBD4D4" cx="12" cy="12" r="12"/><path d="M4 4h16v16H4z"/><path d="m17.697 11.337-2.544-3.958 1.034-1.293-1.041-.832-1.133 1.416H9.32L8.187 5.254l-1.041.832L8.18 7.379l-2.544 3.958H4v1.333h1.636l2.544 3.958-1.034 1.293 1.041.832 1.134-1.416h4.692l1.134 1.416 1.041-.832-1.034-1.293 2.544-3.958h1.635v-1.333h-1.636Zm-7.03 1.333a2 2 0 1 1 0-4 2 2 0 0 1 0 4Zm2.666 2a.667.667 0 1 1 0-1.334.667.667 0 0 1 0 1.334Z" fill="#EE5253" fill-rule="nonzero"/></g></svg>