<svg width="24" height="24" xmlns="http://www.w3.org/2000/svg"><g fill="none" fill-rule="evenodd"><circle fill="#FBD4D4" cx="12" cy="12" r="12"/><path d="M4 4h16v16H4z"/><g fill="#EE5253" fill-rule="nonzero"><path d="M16.667 6.667h-.666v2H8v-2h-.667c-.736 0-1.333.597-1.333 1.333v9.333c0 .736.597 1.334 1.333 1.334h9.333c.736 0 1.334-.598 1.334-1.334V8c0-.736-.598-1.333-1.334-1.333Zm-4.666 4A1.666 1.666 0 1 1 12 14a1.666 1.666 0 0 1 0-3.333Zm-2.5 6.666c0-1.534.966-2.5 2.5-2.5s2.5.966 2.5 2.5h-5Z"/><path d="M13.334 6a1.333 1.333 0 0 0-2.667 0H9.334v2h5.333V6h-1.333Z"/></g></g></svg>