<svg width="24" height="24" xmlns="http://www.w3.org/2000/svg"><g fill="none" fill-rule="evenodd"><circle fill="#ECCAFF" cx="12" cy="12" r="12"/><path d="M4 4h16v16H4z"/><g fill="#8C00DB"><path d="M17.333 17.333c0-2.355-2.193-4-5.333-4s-5.333 1.645-5.333 4V20h10.666v-2.667Zm-2 0H14v1.334h-1.333v-1.334h-1.334V16h1.334v-1.333H14V16h1.333v1.333ZM12 12.667a3.337 3.337 0 0 1-3.333-3.334H10c0 1.103.897 2 2 2s2-.897 2-2h1.333A3.337 3.337 0 0 1 12 12.667ZM15.257 6.667a3.378 3.378 0 0 0-.59-1.313v-.02h-.017A3.32 3.32 0 0 0 12 4a3.32 3.32 0 0 0-2.65 1.333h-.017v.021c-.285.383-.487.83-.59 1.313H8V8h2.123A1.994 1.994 0 0 0 12 9.333c.87 0 1.602-.558 1.877-1.333H16V6.667h-.743ZM12 8.333a1 1 0 1 1 0-2 1 1 0 0 1 0 2Z"/></g></g></svg>