<svg width="20" height="20" xmlns="http://www.w3.org/2000/svg"><g fill="none" fill-rule="evenodd"><path d="M20.001 0H0v20.001h20.001z"/><g transform="matrix(-1 0 0 1 18.333 2.5)" fill="#ddd" fill-rule="nonzero"><path d="M10 0c-.92 0-1.667.746-1.667 1.667h3.334C11.667.746 10.92 0 10 0ZM5.833 11.82V5.833A.833.833 0 0 0 5 5H3.333a.835.835 0 0 0-.589.244l-2.5 2.5a.833.833 0 0 0-.244.59v5c0 .46.372.833.833.833H2.5a2.5 2.5 0 0 1 2.5-2.5c.293 0 .572.06.833.153ZM4.167 9.167H2.5V7.5h1.667v1.667Z"/><circle cx="5" cy="14.167" r="1.667"/><path d="M15 2.5H8.333c-.92 0-1.666.748-1.666 1.667v8.148c.507.458.833 1.114.833 1.852H10a2.5 2.5 0 0 1 5 0h.833c.461 0 .834-.374.834-.834V4.167c0-.919-.747-1.667-1.667-1.667Zm-.833 5.833H12.5V10h-1.667V8.333H9.167V6.667h1.666V5H12.5v1.667h1.667v1.666Z"/><circle cx="12.5" cy="14.167" r="1.667"/></g></g></svg>