<svg width="24" height="24" xmlns="http://www.w3.org/2000/svg"><g fill="none" fill-rule="evenodd"><path d="M-.001 0H24v24.001H-.001z"/><g transform="translate(2 3)" fill="#FFF" fill-rule="nonzero"><path d="M12 0a2 2 0 0 0-2 2h4a2 2 0 0 0-2-2ZM7 14.184V7a1 1 0 0 0-1-1H4c-.266 0-.519.106-.707.293l-3 3A1 1 0 0 0 0 10v6a1 1 0 0 0 1 1h2a3 3 0 0 1 3-3c.352 0 .686.073 1 .184ZM5 11H3V9h2v2Z"/><circle cx="6" cy="17" r="2"/><path d="M18 3h-8c-1.104 0-2 .898-2 2v9.778c.609.549 1 1.337 1 2.222h3a3 3 0 0 1 6 0h1a1 1 0 0 0 1-1V5c0-1.102-.896-2-2-2Zm-1 7h-2v2h-2v-2h-2V8h2V6h2v2h2v2Z"/><circle cx="15" cy="17" r="2"/></g></g></svg>