<svg width="24" height="24" xmlns="http://www.w3.org/2000/svg"><g fill="none" fill-rule="evenodd"><path d="M-.001 0H24v24.001H-.001z"/><g fill="#BFC1C1" fill-rule="nonzero"><path d="M20 6h-6a2 2 0 0 0-4 0c-1.104 0-2 .898-2 2v1H6a1 1 0 0 0-.707.293l-3 3A.997.997 0 0 0 2 13v6a1 1 0 0 0 1 1h2.185A2.993 2.993 0 0 0 8 22a2.996 2.996 0 0 0 2.816-2h3.368a2.994 2.994 0 0 0 2.815 2 2.997 2.997 0 0 0 2.816-2H21a1 1 0 0 0 1-1V8c0-1.102-.896-2-2-2Zm0 2v10h-.184A2.997 2.997 0 0 0 17 16a2.994 2.994 0 0 0-2.815 2h-3.368a2.99 2.99 0 0 0-.816-1.219V8H20ZM4 13.415 6.414 11H8v5a2.993 2.993 0 0 0-2.815 2H4v-4.585ZM8 20a1.001 1.001 0 0 1 0-2 1.001 1.001 0 0 1 0 2Zm9 0a1.001 1.001 0 0 1 0-2 1.001 1.001 0 0 1 0 2Z"/><path d="M14 15h2v-2h2v-2h-2V9h-2v2h-2v2h2zM5 13h2v2H5z"/></g></g></svg>