<svg width="751" height="568" xmlns="http://www.w3.org/2000/svg"><defs><linearGradient x1="50%" y1="64.442%" x2="85.285%" y2="13.707%" id="a"><stop stop-color="#00B0DB" offset="0%"/><stop stop-color="#00ACB9" offset="33.423%"/><stop stop-color="#00AAA6" offset="100%"/></linearGradient></defs><g fill="none" fill-rule="evenodd" opacity=".32"><path d="M.22 433.27c3.739-57.628 113.383-190.974 173.366-246.641C233.57 130.962 475.085-92.122 629.92 42.644 784.753 177.41 776.783 381.552 680.74 422.469c-150.712 64.208-255.493 44.514-345.265 96.533C115.005 646.754-3.519 490.898.22 433.27Z" fill="#D2F0F3"/><path d="M182.61 320.439c27.713-33.365 153.202-65.985 214.224-73.33 61.022-7.344 306.254-36.274 340.84 113.966 34.587 150.24-60.377 270.762-136.798 253.225-119.92-27.519-174.894-85.743-252.405-93.766-190.36-19.705-193.573-166.73-165.86-200.095Z" fill="url(#a)" transform="rotate(-36 274.349 499.49)"/></g></svg>