<svg width="22" height="22" xmlns="http://www.w3.org/2000/svg"><g fill="none" fill-rule="evenodd"><path d="M0 0h22v22H0z"/><g fill="#999" fill-rule="nonzero"><path d="m15.772 7.498 3.312-3.312-1.113-1.113L2.647 18.396 3.76 19.51l4.066-4.068c.879.33 1.826.543 2.831.543 5 0 8.658-5.115 8.658-5.115s-1.359-1.89-3.543-3.372Zm-5.115 6.52c-.416 0-.811-.084-1.175-.23l4.091-4.092c.148.363.233.758.233 1.174 0 1.74-1.41 3.149-3.149 3.149ZM4.979 13.838l2.566-2.566a2.937 2.937 0 0 1-.036-.402c0-1.739 1.41-3.148 3.148-3.148.137 0 .27.018.402.036l1.696-1.696a7.625 7.625 0 0 0-2.098-.307C5.658 5.755 2 10.87 2 10.87s1.126 1.568 2.979 2.968Z"/></g></g></svg>