<svg width="16" height="16" xmlns="http://www.w3.org/2000/svg"><g fill="none" fill-rule="evenodd"><path d="M0 0h16v16H0z"/><g transform="translate(1.333 1.333)" fill="#757575" fill-rule="nonzero"><path d="M6.667 13.333A6.674 6.674 0 0 1 0 6.667 6.675 6.675 0 0 1 6.667 0a6.674 6.674 0 0 1 6.666 6.667 6.674 6.674 0 0 1-6.666 6.666Zm0-12a5.34 5.34 0 0 0-5.334 5.334A5.34 5.34 0 0 0 6.667 12 5.34 5.34 0 0 0 12 6.667a5.34 5.34 0 0 0-5.333-5.334Z"/><path d="M7.333 8.667V6a.666.666 0 0 0-.666-.667H5.333v1.334H6v2H4.667V10h4V8.667H7.333Z"/><circle cx="6.667" cy="4" r="1"/></g></g></svg>