<svg width="16" height="16" xmlns="http://www.w3.org/2000/svg"><g fill="none" fill-rule="evenodd"><path d="M0 .002h16v16H0z"/><g fill="#BFC1C1" fill-rule="nonzero"><path d="M12.667 1.334H3.333C2.598 1.334 2 1.933 2 2.667v1.334c0 .734.598 1.333 1.333 1.333h9.334c.736 0 1.333-.599 1.333-1.333V2.667c0-.734-.597-1.333-1.333-1.333ZM12.667 6H3.333C2.598 6 2 6.6 2 7.335v1.333c0 .735.598 1.334 1.333 1.334h9.334C13.403 10 14 9.402 14 8.667V7.334c0-.735-.597-1.333-1.333-1.333ZM12.667 10.667H3.333c-.735 0-1.333.599-1.333 1.334v1.333c0 .735.598 1.333 1.333 1.333h9.334c.736 0 1.333-.598 1.333-1.333v-1.333c0-.735-.597-1.334-1.333-1.334Z"/></g></g></svg>