<svg width="24" height="24" xmlns="http://www.w3.org/2000/svg"><g fill="none" fill-rule="evenodd"><path d="M0 .003h24v24H0z"/><path d="M19 8.001H5c-1.104 0-2-.897-2-2v-2c0-1.102.896-2 2-2h14c1.104 0 2 .898 2 2v2c0 1.103-.896 2-2 2Zm-14-4v2h14v-2H5Z" fill="#BFC1C1" fill-rule="nonzero"/><g fill="#BFC1C1" fill-rule="nonzero"><path d="M19 15.001H5c-1.104 0-2-.897-2-2v-2c0-1.102.896-2 2-2h14c1.104 0 2 .898 2 2v2c0 1.103-.896 2-2 2Zm-14-4v2h14v-2H5ZM19 22.001H5c-1.104 0-2-.897-2-2v-2c0-1.103.896-2 2-2h14c1.104 0 2 .897 2 2v2c0 1.103-.896 2-2 2Zm-14-4v2h14v-2H5Z"/></g></g></svg>