<svg width="24" height="24" xmlns="http://www.w3.org/2000/svg"><g fill="none" fill-rule="evenodd"><circle fill="#B4ECF8" cx="12" cy="12" r="12"/><path d="M4 4h16v16H4z"/><g fill="#00B0DB" fill-rule="nonzero"><path d="M8.667 7.337h6.666A.667.667 0 0 0 16 6.67V5.337a.667.667 0 0 0-.667-.667H8.667A.667.667 0 0 0 8 5.337V6.67c0 .368.299.667.667.667ZM18.274 16.815l-3.607-4.384V8.003h-1.334v.667H12v1.333h1.333v.667h-2v1.333h2v.667c0 .154.054.304.152.424l1.848 2.243H8.669l1.846-2.243a.671.671 0 0 0 .152-.424V8.003H9.333v4.428l-3.638 4.426a1.993 1.993 0 0 0-.136 2.07 1.993 1.993 0 0 0 1.774 1.076h9.334c.748 0 1.428-.412 1.774-1.076.345-.664.294-1.456-.167-2.112Z"/></g></g></svg>