<svg xmlns="http://www.w3.org/2000/svg" viewBox="0 0 356.17 465"><defs><style>.cls-2{fill:#f9d68f}.cls-3{opacity:.2;mix-blend-mode:multiply}.cls-4{fill:#dd9e2f}.cls-5{fill:#fff}.cls-7{fill:#855914}</style></defs><g style="isolation:isolate"><g id="Ebene_2" data-name="Ebene 2"><g id="Layer_1" data-name="Layer 1"><g id="man_back" data-name="man back"><path id="body" class="cls-2" d="M354.87 231.21c0-.32.54-4.51.52-4.85-.07-.93-1.22-2.6-1.35-6.69-.48-9.82-.37-28.82-1.16-35.53-.48-4.06-.89-13.47-1.43-14.81-1.36-3.41-4.89-10.73-6.31-14s-1.34-14.36-1.81-20.89a90.85 90.85 0 0 0-3.23-18.17c1.56-13.4-2.11-33.27-19.67-35.54-1.93-.25-20.08-9.07-24.75-13 0 0-1.8-5.89-1.44-18.41l2.22-1.73.85-7.75 2.08-2.32 1-11-2-1v-14l-7.87-6.36-11.69-1.5-11.59 1.41-7.88 6.36v14l-2 1 1 11 2.08 2.32.85 7.75 2.22 1.73C263.82 61.81 262 67.7 262 67.7c-4.67 4-22.83 12.78-24.75 13-17.55 2.3-21.25 22.17-19.66 35.57a90.69 90.69 0 0 0-3.23 18.17c-.47 6.53-.36 17.52-1.81 20.89s-4.94 10.61-6.31 14c-.54 1.34-1 10.75-1.43 14.81-.79 6.7-.67 25.71-1.15 35.53-.14 4.09-1.28 5.76-1.35 6.69 0 .34.5 4.53.52 4.85a120.18 120.18 0 0 1-2.29 12.9c.16 2.61 4.63 16.93 5.52 17.79 4.67 4.55 9.57 11.92 11.64 12.52 1.62-2.06-3.47-11.41-4.16-12.36a26.65 26.65 0 0 1-1.64-6.72s.82-3.25 1.56-5.68c1 2.32 2.84 6.28 3 7.92.36 3.46.95 8.44 4.25 8.28-.2-3.19.41-8.36.16-9.4a36 36 0 0 1-.93-9.84c.15-3.63-5.9-14.7-5.91-17.12s2.85-14.06 4.89-20.19c2.33-7 7.86-20.5 8.63-23 2.12-6.84 0-17.08 1.41-22.17 1.31-4.8 8.08-28.75 9-33.39 1.65 10 7.55 25.84 8.25 31.74-.1.09.18 9.59-.05 19.27-.1 4.3-.66 8.57-.68 9.34l.87 4.19c.14 1-5.42 17.92-6.09 20.79 0 0-2.66 21.56-3.31 26.6-1.58 12.22-1.8 27.11-1.42 31.95.26 3.27 3.56 24.21 4 27.72 0 0 5.12 17.48 5.84 22.85.28 2.08-.52 12.62-.52 12.62 0 1.54.92 9.46.92 9.46.39 1.8-4.76 28.33-4.44 31.16a265.47 265.47 0 0 0 6.23 34.23c.59 2.18 3 17.14 3.53 20.42-.15 3-1.91 7.75-1.86 8.51s1.93 5.42 1.83 6.32c-2.06 5.81-5.75 11.63-7.67 12.63-.4.59.56 3.56.56 3.56.63.35 1.13.64 1.58.87h24.35a3.37 3.37 0 0 0 1.45-3.15c-.14-1.8-1.55-2.42-2.16-3.75 0 0-2.92-16-3.33-17.76a29.11 29.11 0 0 0 1.12-4.44c-.08-1.17-.87-2.28-1.32-4.32-1.09-5-.83-10.61-.66-15.87.39-11.79 5.48-32.42 6.14-41.67.32-4.44-3.85-24.11-4.06-26.18-.17-1.64 2-10.88 2-10.88-.23-4.52.94-20.94.59-27.85-.27-5.36 3.29-21.75 3.88-24.81.63-3.26 2.16-31 3.35-33.76l2-1.39 2 1.39c1.19 2.75 2.72 30.49 3.35 33.76.59 3.06 4.15 19.45 3.88 24.81-.35 6.9.82 23.33.59 27.85 0 0 2.14 9.24 2 10.88-.21 2.07-4.38 21.74-4.06 26.18.67 9.25 5.75 29.88 6.14 41.67.17 5.26.43 10.85-.66 15.87-.44 2-1.24 3.15-1.32 4.32a29.24 29.24 0 0 0 1.12 4.44c-.42 1.77-3.33 17.76-3.33 17.76-.61 1.33-2 1.95-2.17 3.75a3.36 3.36 0 0 0 1.45 3.15h24.35c.46-.23 1-.51 1.58-.87 0 0 1-3 .56-3.56-1.92-1-5.61-6.81-7.67-12.62-.11-.9 1.78-5.63 1.83-6.32s-1.7-5.47-1.86-8.51c.57-3.28 2.94-18.24 3.53-20.42a265.26 265.26 0 0 0 6.22-34.23c.32-2.83-4.82-29.37-4.44-31.16 0 0 .92-7.92.92-9.46 0 0-.8-10.54-.52-12.62.71-5.37 5.84-22.85 5.84-22.85.47-3.51 3.77-24.45 4-27.72.38-4.83.16-19.72-1.42-31.95-.65-5-3.31-26.6-3.31-26.6-.67-2.87-6.23-19.83-6.09-20.79l.87-4.19c0-.77-.58-5-.69-9.34-.23-9.68 0-19.18-.05-19.27.71-5.9 6.6-21.7 8.25-31.74.89 4.63 7.65 28.59 9 33.39 1.39 5.09-.71 15.33 1.42 22.17.77 2.49 6.3 16 8.63 23 2 6.12 4.9 17.69 4.89 20.19s-6.06 13.49-5.91 17.12a35.91 35.91 0 0 1-.93 9.84c-.25 1 .36 6.21.16 9.41 3.3.17 3.88-4.82 4.25-8.28.17-1.64 2-5.6 3-7.92.74 2.43 1.56 5.68 1.56 5.68a26.67 26.67 0 0 1-1.64 6.72c-.69.95-5.78 10.3-4.16 12.36 2.07-.6 7-8 11.64-12.52.89-.86 4.37-15.18 4.53-17.79-.04-.01-.78-7.32-1.34-12.92Z"/><g id="shadows_on_body" data-name="shadows on body" class="cls-3"><g id="legs"><path class="cls-4" d="M307.53 324.27c1.52 16.29 1.3 20.56 5.2 38.86 2.68 12.6.56 31.46-2.61 35.48-4.31 5.46-14.53 9.59-15.73 5.59-8.32-27.81-3.14-40.27-1.51-51.57 1.34-9.25 5.65-20.72 5.48-27.06-.37 3.39-3.35 10.55-4.5 10.45a21.68 21.68 0 0 1-1-2.59c-1.46-18.26-4-37.3-4.94-56.11-.54-11.26.28-17.07 10.73-22.28 6.77-3.37 15.36-7.72 22.25-11.25l-.14-1.14c-.11-.87-.29-2.25-.5-3.92-12 6.37-31.48 11.21-39.6 11.67l.19.13c1.19 2.75 2.72 30.49 3.35 33.76.59 3.06 4.15 19.45 3.88 24.81-.35 6.9.82 23.33.59 27.85 0 0 2.14 9.24 2 10.88-.21 2.07-4.38 21.74-4.06 26.18.67 9.25 5.75 29.88 6.14 41.67.17 5.26.43 10.85-.66 15.87-.44 2-1.24 3.15-1.32 4.32a29.24 29.24 0 0 0 1.12 4.44c-.42 1.77-3.33 17.76-3.33 17.76-.61 1.33-2 1.95-2.17 3.75a3.36 3.36 0 0 0 1.45 3.15h24.35c.46-.23 1-.51 1.58-.87 0 0 1-3 .56-3.56-1.92-1-5.61-6.81-7.67-12.62-.11-.9 1.78-5.63 1.83-6.32s-1.7-5.47-1.86-8.51c.57-3.28 2.94-18.24 3.53-20.42a265.26 265.26 0 0 0 6.22-34.23c.32-2.83-4.82-29.37-4.44-31.16 0 0 .92-7.92.92-9.46 0 0-.8-10.54-.52-12.62.71-5.37 5.84-22.85 5.84-22.85.25-1.88 1.31-8.74 2.28-15.22-3.27 12.89-8 35.34-10.84 41.42 0-.01-1.69-3.27-2.09-4.28Zm-4.09 117c-4.08 3.32-3.42 8.34-2.06 11.82.93 2.38 4.16 8.2.69 9.54h-8c-3.75-1.07-.57-7.49.11-10.42 2.37-10.25-1.27-13.73-1.09-14.38 2.57-9.05 2.18-13.47 2.18-13.47.29-3.49 10.45-13.63 10.84-11.63a225.43 225.43 0 0 0-3.11 22.43 32.31 32.31 0 0 0 .43 6.1ZM237.37 238.76c-.21 1.67-.38 3-.5 3.92 0 .38-.1.76-.14 1.14 6.89 3.53 15.49 7.88 22.25 11.25 10.45 5.21 11.27 11 10.73 22.28-.91 18.81-3.49 37.85-4.94 56.11 0 0 0-.05 0 0a21.68 21.68 0 0 1-1 2.59c-1.15.1-4.13-7.06-4.5-10.45-.17 6.35 4.14 17.81 5.48 27.06 1.63 11.3 6.81 23.76-1.51 51.57-1.2 4-11.42-.12-15.73-5.59-3.16-4-5.29-22.88-2.61-35.48 3.9-18.3 3.68-22.57 5.2-38.86-.41 1-2.09 4.27-2.09 4.27-2.89-6.08-7.56-28.52-10.84-41.42 1 6.48 2 13.34 2.28 15.22 0 0 5.12 17.48 5.84 22.85.28 2.08-.52 12.62-.52 12.62 0 1.54.92 9.46.92 9.46.39 1.8-4.76 28.33-4.44 31.16a265.47 265.47 0 0 0 6.23 34.23c.59 2.18 3 17.14 3.53 20.42-.15 3-1.91 7.75-1.86 8.51s1.93 5.42 1.83 6.32c-2.06 5.81-5.75 11.63-7.67 12.63-.4.59.56 3.56.56 3.56.63.35 1.13.64 1.58.87h24.35a3.37 3.37 0 0 0 1.45-3.15c-.14-1.8-1.55-2.42-2.16-3.75 0 0-2.92-16-3.33-17.76a29.11 29.11 0 0 0 1.12-4.44c-.08-1.17-.87-2.28-1.32-4.32-1.09-5-.83-10.61-.66-15.87.39-11.79 5.48-32.42 6.14-41.67.32-4.44-3.85-24.11-4.06-26.18-.17-1.64 2-10.88 2-10.88-.23-4.52.94-20.94.59-27.85-.27-5.36 3.29-21.75 3.88-24.81.62-3.26 2.15-30.87 3.34-33.73l.15-.1c-8.09-.49-27.53-5.36-39.57-11.73Zm26.25 223.86h-8c-3.48-1.34-.24-7.17.69-9.54 1.36-3.49 2-8.5-2.06-11.82a32.31 32.31 0 0 0 .48-6.1 225.1 225.1 0 0 0-3.14-22.43c.39-2 10.55 8.14 10.84 11.63 0 0-.38 4.42 2.18 13.47.18.65-3.46 4.13-1.09 14.38.67 2.93 3.85 9.35.1 10.42Z"/></g><g id="arms"><path class="cls-4" d="M346.76 241.25c-.85.44-5.59 4.58-6.38 4.36-1.65-.47 3.34-11.27 5.87-15.19 1.13-1.75-3.6-18.92-6.2-27.59-1.66-5.54-4.55-15.28-4.76-17.15-.18-1.57 0-14.86-.21-20.34-.08-2.34-4.25-16.34-6.38-26.5-1.1-5.3-1-8.37-2-13.6-.78-4-4.37-13.1-7.19-17.16 2.19 23.15-9.16 47-10.6 51.95-1 3.57 3.57 28.1-3.67 35.38 0 0-2.56 3.55-2.71 4.67 1.35-.77 5.23-3.77 6.26-3.31.94 7.87 1.74 11.95-6.26 17.28 0 0 10.13-1.67 13.12-4-1.85-6-4.39-14.06-4.3-14.71l.87-4.19c0-.77-.58-5-.69-9.34-.23-9.68 0-19.18-.05-19.27.71-5.9 6.6-21.7 8.25-31.74.89 4.63 7.65 28.59 9 33.39 1.39 5.09-.71 15.33 1.42 22.17.77 2.49 6.3 16 8.63 23 2 6.12 4.9 17.69 4.89 20.19s-6.06 13.49-5.91 17.12a35.91 35.91 0 0 1-.93 9.84c-.25 1 .36 6.21.16 9.41 3.3.17 3.88-4.82 4.25-8.28.17-1.64 2-5.6 3-7.92.74 2.43 1.56 5.68 1.56 5.68a26.67 26.67 0 0 1-1.64 6.72c-.69.95-5.78 10.3-4.16 12.36a2.87 2.87 0 0 0 .89-.52c-2-1.7 6.22-11.42 6.63-14 2.2-3.18 1.72-20.21-.76-18.71ZM338.75 120.16c2.84 5.76 3.95 13 4.79 19.1-.07-1.74-.14-3.4-.25-4.83a90.85 90.85 0 0 0-3.23-18.17c1.56-13.4-2.11-33.27-19.67-35.54a3.38 3.38 0 0 1-.57-.15v.06a80 80 0 0 0-9.92.28c13.46.62 21.5 3.27 25.08 13.18 3.25 9 5.67 21.52-.09 31.32.86-1.41 2.94-3.41 3.86-5.25ZM210.9 241.25c.85.44 5.59 4.58 6.38 4.36 1.65-.47-3.34-11.27-5.87-15.19-1.13-1.75 3.6-18.92 6.2-27.59 1.66-5.54 4.55-15.28 4.76-17.15.18-1.57 0-14.86.21-20.34.09-2.35 4.26-16.29 6.38-26.48 1.11-5.3 1-8.37 2-13.6.78-4 4.37-13.1 7.19-17.16-2.19 23.15 9.16 47 10.6 51.95 1 3.57-3.57 28.1 3.67 35.38 0 0 2.56 3.55 2.71 4.67-1.35-.77-5.23-3.77-6.26-3.31-.94 7.87-1.74 11.95 6.26 17.28 0 0-10.13-1.67-13.12-4 1.85-6 4.39-14.06 4.3-14.71l-.87-4.19c0-.77.58-5 .68-9.34.23-9.68 0-19.18.05-19.27-.71-5.9-6.6-21.7-8.25-31.74-.89 4.63-7.65 28.59-9 33.39-1.39 5.09.71 15.33-1.41 22.17-.77 2.49-6.3 16-8.63 23-2 6.12-4.9 17.69-4.89 20.19s6.06 13.49 5.91 17.12a35.91 35.91 0 0 0 .93 9.84c.25 1-.36 6.21-.16 9.41-3.3.17-3.88-4.82-4.25-8.28-.17-1.64-2-5.6-3-7.92-.74 2.43-1.56 5.68-1.56 5.68a26.67 26.67 0 0 0 1.64 6.72c.69.95 5.78 10.3 4.16 12.36a2.87 2.87 0 0 1-.89-.52c2-1.7-6.22-11.42-6.63-14-2.2-3.2-1.72-20.23.76-18.73ZM218.91 120.16c-2.84 5.76-3.95 13-4.79 19.1.07-1.74.14-3.4.25-4.83a90.91 90.91 0 0 1 3.23-18.17c-1.6-13.39 2.1-33.26 19.66-35.53a3.38 3.38 0 0 0 .57-.15v.06a79.94 79.94 0 0 1 9.92.28c-13.45.62-21.5 3.27-25.08 13.18-3.25 9-5.67 21.52.09 31.32-.85-1.42-2.93-3.42-3.85-5.26Z"/></g><g id="back"><path class="cls-4" d="M296.91 211.28c-.77-2.5-4.84-5.56-4.84-5.56-2.41 0 1 7.24-2.94 11.11 3.22.17 8.87-2.07 7.78-5.55ZM260.74 211.28c.77-2.5 4.84-5.56 4.84-5.56 2.41 0-1 7.24 2.94 11.11-3.21.17-8.85-2.07-7.78-5.55ZM302.89 84.49l-.9.08c0 1-5.07 6.77-5.3 7.77-.35 1.57-2.43 20.81-1.3 27.8.61 3.75 13.52 12.94 13.52 12.94s-8.95-10.69-9.18-13.17c-1.56-16.36-1.66-30.53 3.16-35.42ZM254.77 84.49l.9.08c0 1 5.07 6.77 5.3 7.77.35 1.57 2.43 20.81 1.3 27.8-.61 3.75-13.52 12.94-13.52 12.94s8.95-10.69 9.19-13.17c1.55-16.36 1.65-30.53-3.17-35.42ZM279 129.44c-3.07 8.22-3 55.07-.26 62.89 2.26-7.82 2.62-54.8.26-62.89Z"/></g></g><g id="underwear"><path id="underwear-2" data-name="underwear" class="cls-5" d="M317.43 216c-.36-1.56-1.86-7.06-1.86-7.06-7.85 2.21-22.86 3.86-36.76 4-13.9-.19-28.91-1.83-36.76-4 0 0-1.5 5.5-1.86 7.06-.66 2.88-2.34 16.46-3.69 26.7 6.48 4 27.57 9.88 40.06 9.16a3.78 3.78 0 0 1 4.51 0c12.49.72 33.58-5.19 40.06-9.16-1.36-10.26-3.04-23.84-3.7-26.7Z"/><path id="shadow" d="M317.43 216c-.36-1.56-1.86-7.06-1.86-7.06-.62.18-1.31.35-2 .51 3.48 11.34 1.33 28.35-7.51 31.74-12.22 4.68-22.64-2-27.2-1.92-4.56 0-15 6.6-27.2 1.92-8.84-3.39-11-20.4-7.51-31.74-.72-.17-1.42-.34-2-.52 0 0-1.5 5.5-1.86 7.06-.66 2.88-2.34 16.46-3.69 26.7 6.48 4 27.57 9.88 40.06 9.16a4.7 4.7 0 0 1 2.25-.74 4.75 4.75 0 0 1 2.23.74c12.49.72 33.58-5.19 40.06-9.16-1.43-10.25-3.11-23.83-3.77-26.69Z" style="fill:#dd9e2f;opacity:.2;mix-blend-mode:multiply"/></g><path id="hair" class="cls-7" d="M294.22 3.66 278.83 0l-15.39 3.66-6.1 7.37v6.69l2.02 7.75.44 6.17 3.4 8.9 4.34 8.41 10.86 2.25 11.44-1.84 5.68-10.92 2.34-6.8.43-6.17 2.02-7.75v-6.69l-6.09-7.37z"/></g><g id="man_front" data-name="man front"><path id="body-2" data-name="body" class="cls-2" d="M154.37 231.21c0-.32.54-4.51.52-4.85-.07-.93-1.22-2.6-1.35-6.69-.48-9.82-.37-28.82-1.15-35.53-.48-4.06-.89-13.47-1.43-14.81-1.36-3.41-4.89-10.73-6.31-14s-1.34-14.36-1.81-20.89a90.71 90.71 0 0 0-3.23-18.17c1.56-13.4-2.11-33.27-19.67-35.54-1.93-.25-20.08-9.07-24.75-13 0 0-1.8-5.89-1.44-18.41l2.22-1.73.85-7.75 2.08-2.32 1-11-2-1v-14l-7.98-6.45-11.59-1.41-11.59 1.41-7.88 6.36v14l-2 1 1 11 2.08 2.32.85 7.75L63 49.29c.36 12.52-1.44 18.41-1.44 18.41-4.67 4-22.83 12.78-24.75 13C19.2 83 15.54 102.87 17.1 116.27a90.64 90.64 0 0 0-3.23 18.17c-.47 6.53-.36 17.52-1.81 20.89s-4.95 10.61-6.31 14c-.53 1.34-1 10.75-1.43 14.81-.79 6.7-.67 25.71-1.15 35.53-.14 4.09-1.28 5.76-1.35 6.69 0 .34.5 4.53.52 4.85A120.09 120.09 0 0 1 0 244.12c.16 2.61 4.63 16.93 5.52 17.79 4.67 4.55 9.57 11.92 11.64 12.52 1.62-2.06-3.47-11.41-4.16-12.36a26.64 26.64 0 0 1-1.64-6.72s.82-3.25 1.56-5.68c1 2.32 2.84 6.28 3 7.92.36 3.46.95 8.44 4.25 8.28-.2-3.19.41-8.36.16-9.4a35.91 35.91 0 0 1-.93-9.84c.15-3.63-5.9-14.7-5.91-17.12s2.85-14.06 4.89-20.19c2.33-7 7.86-20.5 8.63-23 2.12-6.84 0-17.08 1.41-22.17 1.31-4.8 8.08-28.75 9-33.39 1.65 10 7.55 25.84 8.25 31.74-.1.09.18 9.59-.05 19.27-.1 4.3-.66 8.57-.68 9.34l.87 4.19c.14 1-5.42 17.92-6.09 20.79 0 0-2.66 21.56-3.31 26.6-1.58 12.22-1.8 27.11-1.42 31.95.26 3.27 3.56 24.21 4 27.72 0 0 5.13 17.48 5.84 22.85.28 2.08-.52 12.62-.52 12.62 0 1.54.92 9.46.92 9.46.39 1.8-4.76 28.33-4.44 31.16A265.3 265.3 0 0 0 47 412.66c.59 2.18 3 17.14 3.53 20.42-.15 3-1.91 7.75-1.86 8.51s1.93 5.42 1.83 6.32c-2.06 5.81-5.75 11.63-7.67 12.63-.4.59.56 3.56.56 3.56.63.35 1.13.64 1.58.87h24.37a3.36 3.36 0 0 0 1.45-3.15c-.14-1.8-1.55-2.42-2.16-3.75 0 0-2.92-16-3.33-17.76a29.12 29.12 0 0 0 1.12-4.44c-.08-1.17-.87-2.28-1.32-4.32-1.08-5-.83-10.61-.66-15.87.39-11.79 5.48-32.42 6.14-41.67.32-4.44-3.85-24.11-4.06-26.19-.17-1.64 2-10.88 2-10.88-.23-4.52.94-20.94.59-27.85-.27-5.36 3.29-21.75 3.88-24.81.63-3.26 2.16-31 3.35-33.76l2-1.39 2 1.39c1.19 2.75 2.72 30.49 3.35 33.76.59 3.06 4.15 19.45 3.88 24.81-.35 6.9.82 23.33.59 27.85 0 0 2.14 9.24 2 10.88-.21 2.07-4.38 21.74-4.06 26.18.67 9.25 5.75 29.88 6.14 41.67.17 5.26.43 10.85-.66 15.87-.44 2-1.24 3.15-1.32 4.32a29.42 29.42 0 0 0 1.12 4.44C91 442.11 88 458.1 88 458.1c-.61 1.33-2 1.95-2.16 3.75a3.36 3.36 0 0 0 1.49 3.15h24.35c.46-.23 1-.51 1.58-.87 0 0 1-3 .56-3.56-1.92-1-5.61-6.81-7.67-12.62-.11-.9 1.78-5.63 1.83-6.32s-1.7-5.47-1.86-8.51c.57-3.28 2.94-18.24 3.53-20.42a265.27 265.27 0 0 0 6.22-34.23c.32-2.83-4.82-29.37-4.44-31.16 0 0 .92-7.92.92-9.46 0 0-.8-10.54-.52-12.62.71-5.37 5.84-22.85 5.84-22.85.47-3.51 3.77-24.45 4-27.72.38-4.83.16-19.72-1.42-31.95-.65-5-3.31-26.6-3.31-26.6-.67-2.87-6.23-19.83-6.09-20.79l.87-4.19c0-.77-.58-5-.68-9.34-.23-9.68 0-19.18-.05-19.27.71-5.9 6.6-21.7 8.25-31.74.89 4.64 7.65 28.59 9 33.39 1.39 5.09-.71 15.33 1.41 22.17.77 2.49 6.3 16 8.63 23 2 6.12 4.9 17.69 4.89 20.19s-6.06 13.49-5.91 17.12a36 36 0 0 1-.93 9.84c-.25 1 .36 6.21.16 9.41 3.3.17 3.88-4.82 4.25-8.28.17-1.64 2-5.6 3-7.92.74 2.43 1.56 5.68 1.56 5.68a26.62 26.62 0 0 1-1.64 6.72c-.69.95-5.78 10.3-4.16 12.36 2.07-.6 7-8 11.64-12.52.89-.86 5.36-15.18 5.52-17.79a120 120 0 0 1-2.29-12.94Z"/><g id="shadows_on_body-2" data-name="shadows on body" class="cls-3"><g id="legs-2" data-name="legs"><path class="cls-4" d="M39 302.34s5.13 17.48 5.84 22.85c.28 2.08-.52 12.62-.52 12.62 0 1.54.92 9.46.92 9.46.39 1.8-4.76 28.33-4.44 31.16a265.3 265.3 0 0 0 6.2 34.23c.59 2.18 3 17.14 3.53 20.42-.15 3-1.91 7.75-1.86 8.51s1.93 5.42 1.83 6.32c-.21.59-.44 1.19-.68 1.78 1.12-1.45 6.5-6.89 7.87-8.25a65.85 65.85 0 0 1 4.57 5.08c1 2 3.91 13 3.91 13-.36.22-3 1-3 1a12.72 12.72 0 0 1-2.36 2l-3-.94c-.89.3-2.76 1.1-2.76 1.1l-2.24-1.3-2.68 1.26c-.08 0-2.37-1.38-2.37-1.38l-2.21.91-1.77-1.1s1.24-2.55 1.25-2.74a8 8 0 0 1-2.21 2.19c-.4.59.56 3.56.56 3.56.63.35 1.13.64 1.58.87H69.34a3.36 3.36 0 0 0 1.45-3.15c-.14-1.8-1.55-2.42-2.16-3.75 0 0-2.92-16-3.33-17.76a29.12 29.12 0 0 0 1.12-4.44c-.08-1.17-.87-2.28-1.32-4.32-1.08-5-.83-10.61-.66-15.87.39-11.79 5.48-32.42 6.14-41.67.32-4.44-3.85-24.11-4.06-26.19-.17-1.64 2-10.88 2-10.88-.23-4.52.94-20.94.59-27.85-.27-5.36 3.29-21.75 3.88-24.81.63-3.26 2.16-31 3.35-33.76 0 0-8.78-19.28-39.52-10.95-.16 1.28-.3 2.35-.39 3.07v.35c6.59-.51 25.8 2 27.66 3.75 7.47 7 3.55 35.88 3.29 35.4-2.11-3.83-4.07-6.5-5.91-9.87-.76 2.13 2.1 17.45 3.38 24.33 2.07 11.18-.31 29.45-.61 31.91 0 .14-3.84 4.91-4 4.91.8 3.15 2.15 7.36 1.53 11 0 .24-5.7 3-8.28 1.23-1.81-1.22-4.67-6.12-4.79-8.18-.19-3.19 1.16-10 1.08-10.29-1.35-4.22-7.6-20.87-8.38-23.54-.68-2.32-2.77-14.11-2.95-15.06-2.45-12.88-2.42-29.87-2.72-39a194.53 194.53 0 0 0-.68 25c.17 3.33 3.47 24.28 3.95 27.78Zm10.75 44.75c.17-.26 11 12.58 11 12.74 1.13 6.45 1 69.28.65 69.2-9.43-2-16.74-31-17.93-44-1.13-12.42-1-27.19 6.27-37.94ZM87.6 309.13c-.35 6.9.82 23.33.59 27.85 0 0 2.14 9.24 2 10.88-.21 2.07-4.38 21.74-4.06 26.18.67 9.25 5.75 29.88 6.14 41.67.17 5.26.43 10.85-.66 15.87-.44 2-1.24 3.15-1.32 4.32a29.42 29.42 0 0 0 1.12 4.44C91 442.11 88 458.1 88 458.1c-.61 1.33-2 1.95-2.16 3.75a3.36 3.36 0 0 0 1.49 3.15h24.35c.46-.23 1-.51 1.58-.87 0 0 1-3 .56-3.56a8 8 0 0 1-2.21-2.19c0 .19 1.25 2.74 1.25 2.74l-1.77 1.1-2.21-.91s-2.29 1.38-2.36 1.38l-2.68-1.26-2.24 1.3s-1.87-.8-2.76-1.1l-3 .94a12.67 12.67 0 0 1-2.36-2s-2.59-.8-3-1c0 0 2.92-10.92 3.91-13a66.4 66.4 0 0 1 4.61-5.14c1.36 1.37 6.75 6.81 7.86 8.26-.24-.59-.47-1.18-.68-1.78-.11-.9 1.78-5.63 1.83-6.32s-1.7-5.47-1.86-8.51c.57-3.28 2.94-18.24 3.53-20.42a265.27 265.27 0 0 0 6.22-34.23c.32-2.83-4.82-29.37-4.44-31.16 0 0 .92-7.92.92-9.46 0 0-.8-10.54-.52-12.62.71-5.37 5.84-22.85 5.84-22.85.47-3.51 3.77-24.45 4-27.72a194.75 194.75 0 0 0-.68-25c-.3 9.17-.26 26.15-2.72 39-.18 1-2.27 12.73-2.95 15.06-.78 2.67-7 19.32-8.38 23.54-.08.26 1.26 7.1 1.08 10.29-.12 2.06-3 7-4.79 8.18-2.58 1.74-8.24-1-8.28-1.23-.61-3.68.74-7.9 1.53-11-.15 0-4-4.77-4-4.91-.31-2.45-2.69-20.73-.61-31.91 1.28-6.88 4.14-22.2 3.38-24.33-1.84 3.37-3.8 6-5.91 9.87-.27.48-4.18-28.42 3.29-35.39 1.86-1.74 21.07-4.26 27.65-3.75v-.35c-.09-.72-.23-1.78-.39-3.07-30.74-8.33-39.52 10.95-39.52 10.95 1.19 2.75 2.72 30.49 3.35 33.76.56 3.05 4.12 19.45 3.85 24.8Zm8.3 50.7c0-.16 10.84-13 11-12.74 7.27 10.74 7.4 25.52 6.26 37.94-1.19 13-10.08 43.7-17.93 44-.32.02-.46-62.74.68-69.2Z"/></g><g id="belly"><path class="cls-4" d="M60.09 208.84c-.46-.69-4.16-6.36-4.54-6.94-.58-.86-6.54-4.51-6.8-5.17.55 1 5.22 6 5.22 6 .68 1.26 1.57 9.47 1.57 9.47l-15.86 3.83 35 2.78c-11.54-3.99-14.59-9.97-14.59-9.97ZM58.9 174.79l-5.68-4.16c5.64 6.5 6.75 14.4 8.9 23.75v-6.66s-2.57-12.01-3.22-12.93ZM96.58 208.84c.46-.69 4.16-6.36 4.54-6.94.58-.86 6.54-4.51 6.8-5.17-.55 1-5.22 6-5.22 6-.68 1.26-1.57 9.47-1.57 9.47l15.87 3.88-35 2.78c11.52-4.04 14.58-10.02 14.58-10.02ZM97.77 174.79l5.68-4.16c-5.64 6.5-6.75 14.4-8.9 23.75v-6.66s2.57-12.01 3.22-12.93ZM78.33 180.28a2.77 2.77 0 0 0-2.47 2 7 7 0 0 1 4.95 0 2.77 2.77 0 0 0-2.48-2Z"/></g><g id="arms-2" data-name="arms"><path class="cls-4" d="M47.27 127.72c-1.46-.85-7.9-8.77-7.9-8.77s-2.31-11.06-1.28-18.37c-1 7.31-16.51 12.46-18.83 12.55a11 11 0 0 1-2.48-3.3 49.57 49.57 0 0 0 .32 6.43 68.84 68.84 0 0 0 2 8.66s6.37-7.32 14.12-6.31l1.78 8.53c-.88 11.44-7.47 29-9.28 31.45-.15.2-7 3-7 3s-5.59-5.46-6.73-6.3c-.67 1.55-1.8 4-3 6.49 1.24-.47 2.47-.95 3.66-1.52.16-.08 8 19.72 8 19.72-2.11 8.14-10.73 44-11 45.75l3.69 15.92-4.71 8.89L7 249.48l-2 1.3-1.87-.89-.94 1.11L0 244.12c.16 2.61 4.63 16.93 5.52 17.79 4.67 4.55 9.57 11.92 11.64 12.52 1.62-2.06-3.47-11.41-4.16-12.36a26.64 26.64 0 0 1-1.64-6.72s.82-3.25 1.56-5.68c1 2.32 2.84 6.28 3 7.92.36 3.46.95 8.44 4.25 8.28-.2-3.19.41-8.36.16-9.4a35.91 35.91 0 0 1-.93-9.84c.15-3.63-5.9-14.7-5.91-17.12s2.85-14.06 4.89-20.19c2.33-7 7.86-20.5 8.63-23 2.12-6.84 0-17.08 1.41-22.17 1.31-4.8 8.08-28.75 9-33.39 1.65 10 7.55 25.84 8.25 31.74-.1.09.18 9.59-.06 19.27.39-3.24 1.71-20.49 1.71-20.49L46.3 147s1.95-10.27 2.12-10.56c.58-1 16.42-3.39 19.87-6.11-2.81 1.57-16.11.26-21.02-2.61ZM109.39 127.72c1.46-.85 7.9-8.77 7.9-8.77s2.31-11.06 1.28-18.37c1 7.31 16.51 12.46 18.83 12.55a11 11 0 0 0 2.48-3.3 49.75 49.75 0 0 1-.32 6.43 68.78 68.78 0 0 1-2 8.66s-6.37-7.32-14.12-6.31l-1.84 8.53c.88 11.44 7.47 29 9.28 31.45.15.2 7 3 7 3s5.59-5.46 6.73-6.3c.67 1.55 1.8 4 3 6.49-1.24-.47-2.47-.95-3.66-1.52-.16-.08-8 19.72-8 19.72 2.11 8.14 10.73 44 11 45.75l-3.69 15.92 4.71 8.89 1.79-1.1 2 1.3 1.87-.89.89 1.14 2.19-6.91c-.16 2.61-4.63 16.93-5.52 17.79-4.67 4.55-9.57 11.92-11.64 12.52-1.62-2.06 3.47-11.41 4.16-12.36a26.62 26.62 0 0 0 1.64-6.72s-.82-3.25-1.56-5.68c-1 2.32-2.84 6.28-3 7.92-.36 3.46-.95 8.44-4.25 8.28.2-3.19-.41-8.36-.16-9.41a36 36 0 0 0 .93-9.84c-.15-3.63 5.9-14.7 5.91-17.12s-2.85-14.06-4.89-20.19c-2.33-7-7.86-20.5-8.63-23-2.12-6.84 0-17.08-1.41-22.17-1.31-4.8-8.08-28.75-9-33.39-1.65 10-7.55 25.84-8.25 31.74.1.09-.18 9.59.06 19.27-.39-3.24-1.71-20.49-1.71-20.49l1-14.25s-1.95-10.27-2.12-10.56c-.58-1-16.42-3.39-19.87-6.11 2.79 1.59 16.09.28 20.99-2.59Z"/></g><g id="neck"><path class="cls-4" d="m51.39 78 12.4-10.41c-.16-1.25-.55-17-.84-18.95.45 13-1.42 19.08-1.42 19.08-4.67 4-22.83 12.78-24.75 13 8.92.29 35.79 3.09 35.79 3.09S52.58 78.72 51.39 78ZM105.28 78l-12.4-10.43c.16-1.25.55-17 .84-18.95-.45 13 1.42 19.08 1.42 19.08 4.67 4 22.83 12.78 24.75 13-8.89.3-35.78 3.12-35.78 3.12s19.98-5.1 21.17-5.82Z"/></g><g id="face"><path class="cls-4" d="m74.69 41.53 3.64 1.73 3.64-1.73h-7.28z"/><path class="cls-4" d="M89.92 5.07 78.33 3.66 66.74 5.07l-7.88 6.36v14l1 14.34.85 7.75L63.86 50l7.93 11.83h13.09L92.81 50l3.12-2.44.85-7.75 1-14.34v-14Zm-5.81 24.38 9.62.21.82.88-1.92 4.24-.1 13.77-3.43 4.34-4.48 3.49H72l-4.48-3.49-3.42-4.33-.1-13.77-1.92-4.24.82-.88 9.61-.21L76.4 32l-1-4.55-3.65-2.95-7.85.93-1.51-2.07-.43-3.79 4.8-7 11.58-1.11 11.58 1.11 4.8 7-.42 3.79-1.51 2.07-7.85-.93-3.63 2.9-1 4.55Z"/></g></g><g id="underwear-3" data-name="underwear"><path id="underwear-4" data-name="underwear" class="cls-5" d="M117 216c-.36-1.56-1.86-7.06-1.86-7.06-7.85 2.22-22.88 3.86-36.78 4-13.91-.19-28.93-1.83-36.78-4 0 0-1.5 5.5-1.86 7.06-.66 2.88-2.34 16.46-3.69 26.7 6.54-.2 24.41-.22 31.15 1.76.78.23 2 5.5 8.91 7.39 0 0 1.25.16 2.27.25 1-.08 2.22-.23 2.27-.24 6.86-1.9 8.12-7.16 8.91-7.39 6.74-2 24.61-2 31.15-1.76-1.37-10.27-3.06-23.85-3.69-26.71Z"/><g id="shadow-2" data-name="shadow" class="cls-3"><path class="cls-4" d="M64.87 235c-7.81 6.76-21.72 7-28.87 7.73 6.54-.2 24.41-.22 31.15 1.76-1.35-2.96-2.28-9.49-2.28-9.49ZM91.8 235c7.81 6.76 21.72 7 28.87 7.73-6.54-.2-24.41-.22-31.15 1.76 1.35-2.96 2.28-9.49 2.28-9.49Z"/></g></g><path id="hair-2" data-name="hair" class="cls-7" d="M93.72 3.66 78.33 0 62.94 3.66l-6.09 7.37v6.69l2.02 7.75.44 6.17 1.9-7.31.02-5.2 5.07-7.61h24.07l5.07 7.61.02 5.2 1.9 7.31.44-6.17 2.02-7.75v-6.69l-6.1-7.37z"/></g></g></g></g></svg>