<svg width="24" height="24" xmlns="http://www.w3.org/2000/svg"><g fill="none" fill-rule="evenodd"><circle fill="#B4ECF8" cx="12" cy="12" r="12"/><path d="M4 4.001h16v16.001H4z"/><path d="M12.557 5.635a.666.666 0 0 0-1.105-.014c-.422.61-4.119 6.03-4.119 8.379A4.672 4.672 0 0 0 12 18.667 4.672 4.672 0 0 0 16.667 14c0-2.184-3.134-6.938-4.11-8.365Zm-1.224 9.698v1.334c-1.102 0-2-.898-2-2 0-.832 1.077-2.995 1.407-3.638l1.186.609c-.603 1.175-1.253 2.673-1.26 3.03 0 .366.3.665.667.665Z" fill="#00B0DB" fill-rule="nonzero"/></g></svg>