<svg width="24" height="24" xmlns="http://www.w3.org/2000/svg"><g fill="none" fill-rule="evenodd"><circle fill="#FBD4D4" cx="12" cy="12" r="12"/><path d="M4 4.001h16v16.001H4z"/><g fill="#EE5253" fill-rule="nonzero"><path d="m11.92 9.057.942.944c.52-.52 1.366-.52 1.885 0l.943-.944a2.67 2.67 0 0 0-3.77 0Z"/><path d="M16.943 7.057c-.882-.881-1.996-1.367-3.138-1.367-1.143 0-2.258.485-3.138 1.367l-4 4c-.882.882-1.368 1.996-1.368 3.138s.486 2.257 1.368 3.138c.881.882 1.996 1.367 3.138 1.367 1.143 0 2.257-.485 3.138-1.367l4-4c.881-.881 1.367-1.995 1.367-3.138 0-1.142-.486-2.256-1.367-3.138ZM16 12.391l-1.333 1.333-4.391-4.39L11.609 8c.639-.639 1.398-.977 2.196-.977.796 0 1.556.338 2.195.977.64.639.977 1.398.977 2.195 0 .798-.338 1.557-.977 2.196Z"/></g></g></svg>