<svg width="24" height="24" xmlns="http://www.w3.org/2000/svg"><g fill="none" fill-rule="evenodd"><path d="M0 0h24v24H0z"/><g fill="#FFF" fill-rule="nonzero"><path d="M9.359 15.5a2.5 2.5 0 1 1-5 0 2.5 2.5 0 0 1 5 0M11.718 22a3.99 3.99 0 0 0-3.858-3h-2a3.991 3.991 0 0 0-3.859 3h9.717ZM19.643 15.5a2.5 2.5 0 1 1-5 0 2.5 2.5 0 0 1 5 0M22.001 22a3.99 3.99 0 0 0-3.858-3h-2a3.991 3.991 0 0 0-3.859 3h9.717ZM14.501 4.5a2.5 2.5 0 1 1-5 0 2.5 2.5 0 0 1 5 0M16.859 11a3.99 3.99 0 0 0-3.858-3h-2a3.991 3.991 0 0 0-3.859 3h9.717Z"/></g></g></svg>