<svg xmlns="http://www.w3.org/2000/svg" width="24" height="24"><g fill="none" fill-rule="evenodd"><path d="M0 .001h24v24H0z"/><g fill="#BFC1C1" fill-rule="nonzero" transform="translate(1 3)"><path d="M10.998 18.001h-10a.998.998 0 0 1-.732-1.68l2.305-2.484C1.54 12.393.999 10.736.999 9.001c0-4.963 4.486-9 10-9s10 4.037 10 9-4.487 9-10.001 9Zm-7.707-2h7.707c4.411 0 8-3.14 8-7 0-3.859-3.589-7-8-7s-8 3.141-8 7c0 1.537.568 3 1.642 4.232a1 1 0 0 1-.021 1.338l-1.328 1.43Z"/><circle cx="6.998" cy="9.001" r="1"/><circle cx="10.998" cy="9.001" r="1"/><circle cx="14.998" cy="9.001" r="1"/></g></g></svg>