<svg width="24" height="24" xmlns="http://www.w3.org/2000/svg"><g fill="none" fill-rule="evenodd"><path d="M0-.001h24v24H0z"/><path d="M17.537 6.242 15.754.003H8.246L6.463 6.242a7.97 7.97 0 0 0 0 11.522l1.783 6.239h7.509l1.783-6.239a7.97 7.97 0 0 0-.001-11.522ZM9.754 2.003h4.491l.738 2.583a7.936 7.936 0 0 0-5.967 0l.738-2.583Zm4.492 20H9.754l-.738-2.583a7.945 7.945 0 0 0 5.968 0l-.738 2.583Zm-2.247-4.002a6 6 0 0 1 0-12 6 6 0 0 1 0 12Z" fill="#BFC1C1" fill-rule="nonzero"/><path d="M12 16.001s4-2.33 4-4.797c0-2.343-3.131-3.36-4-.285-.869-3.075-4-2.058-4 .285 0 2.467 4 4.797 4 4.797Z" fill="#BFC1C1" fill-rule="nonzero"/></g></svg>