<svg width="24" height="24" xmlns="http://www.w3.org/2000/svg"><g fill="none" fill-rule="evenodd"><path d="M0 0h24v24H0z"/><path d="M12 2C6.477 2 2 6.477 2 12c0 5.522 4.477 10 10 10s10-4.478 10-10c0-5.523-4.478-10-10-10ZM8 6.586l2.707 2.707-1.414 1.413L8 9.414l-1.293 1.292-1.414-1.413L8 6.586ZM12 19a7.594 7.594 0 0 1-6-2.957l1.559-1.557A5.418 5.418 0 0 0 12 16.831a5.407 5.407 0 0 0 4.443-2.35L18 16.04A7.58 7.58 0 0 1 12 19Zm5.293-8.293L16 9.414l-1.293 1.292-1.414-1.413L16 6.586l2.707 2.707-1.414 1.414Z" fill="#12C238" fill-rule="nonzero"/></g></svg>