<svg width="24" height="24" xmlns="http://www.w3.org/2000/svg"><g fill="none" fill-rule="evenodd"><path d="M0 0h24v24H0z"/><g fill="#FFF" fill-rule="nonzero"><path d="m22.447 7.11-10-5a1 1 0 0 0-.895 0l-10 5a.992.992 0 0 0-.445.463A1.215 1.215 0 0 0 1 8.005v5.765a1 1 0 0 0 2 0V9.172l9.015 3.755 10.357-3.994a1 1 0 0 0 .075-1.823Z"/><path d="M12 15.005c-.131 0-.262-.026-.385-.077L5 12.172v3.013c0 .379.214.725.553.895 1.715.857 3.483 1.918 6.447 1.918 2.963 0 4.735-1.062 6.447-1.918a1 1 0 0 0 .553-.894v-2.801l-6.641 2.554a1.032 1.032 0 0 1-.359.066ZM2 16.005a1 1 0 0 0-1 1v2a1 1 0 0 0 2 0v-2a1 1 0 0 0-1-1Z"/></g></g></svg>