<svg width="107" height="144" xmlns="http://www.w3.org/2000/svg"><path fill="none" d="M-1-1h109v146H-1z"/><g fill-rule="evenodd" fill="none" stroke="null"><path fill="#7FD5D7" d="M449.582 568.356c-.266-1.49-.565-9.041.266-11.028s-.166-5.663 2.062-9.272c2.228-3.61 7.317-3.478 7.317-3.478s4.789-1.557 5.454-2.517.333-5.133.333-5.133c-1.297-.96-1.43-3.776-1.43-3.776s-.1.497-.6.165c-.498-.33-.664-3.676-.531-3.974.133-.298.698-.198.698-.198s-.798-4.372.566-6.623c1.363-2.252 4.59-2.584 5.853-2.584s4.49.332 5.853 2.584c1.363 2.251.566 6.623.566 6.623s.565-.1.698.198c.133.298-.033 3.643-.532 3.974-.5.332-.6-.165-.6-.165s-.132 2.815-1.43 3.776c0 0-.33 4.172.334 5.133.665.96 5.454 2.517 5.454 2.517s5.089-.132 7.317 3.478c2.228 3.61 1.23 7.285 2.062 9.272.831 1.987.532 9.538.265 11.028-.266 1.49.133 3.742.566 4.702.432.96-.898 16.691-.699 18.844.2 2.152.898 7.948.632 8.445-.266.496-2.028 4.934-3.857 5.2 0 0-1.33.96-1.796.661-.466-.298.1-.96.1-.96s-.366.066-.599-.166c-.233-.231 1.763-2.152 1.763-2.152s-.998.43-1.33.033c-.333-.397 2.56-1.92 3.06-3.047.498-1.125-.167-1.854-.167-1.854l-.832.397s-.798 2.616-1.363 2.65c-.566.033-.931.033-.466-3.047 0 0-.664-2.285-.133-3.312.532-1.026 1.13-1.291 1.13-2.384s-1.629-6.789-2.16-9.935c-.533-3.146.465-9.272-.067-10.464-.532-1.192-1.164-4.009-1.197-6.029-.034-2.02-.566-4.702-1.065-5.364-.499-.663.22 3.841-.888 6.722-1.108 2.881-.343 7.882.19 10.034.532 2.153 2.294 14.24 2.46 18.645.166 4.404-1.097 20.73-.93 23.082.165 2.35 1.296 5.663 1.296 12.418 0 6.756-1.13 7.319-2.095 10.134-.964 2.815-1.929 10.133-1.83 11.491 0 0 .41 4.7.61 5.396.2.696.628 1.768.72 2.661.092.894.467 1.109-.232 2.068 0 0-5.022.198-6.252 0-.564-.091-.243-1.684 0-2.572.287-1.052.572-1.539.666-3.378.173-3.391-.067-6.427 0-7.056.066-.629.564-7.948-.3-11.49-.865-3.545-.732-8.943.1-11.327.831-2.384-.4-3.71-1.298-6.59-.897-2.881-1.363-9.869-1.363-12.949s-1.03-5.232-1.53-7.02c-.499-1.789-.432-4.372-.432-4.372l-.4-.17-.398.17s.066 2.583-.433 4.372c-.499 1.788-1.53 3.94-1.53 7.02 0 3.08-.465 10.068-1.363 12.949-.898 2.88-2.129 4.206-1.297 6.59.831 2.384.964 7.782.1 11.326-.865 3.543-.366 10.862-.3 11.491.066.63.054 4.724.2 7.564.141 2.765.456 2.764.692 3.694.237.93-.194 1.742-.226 1.748-1.043.168-3.928.04-5.787 0-.334-.008-.845-.556-.845-1.338 0-1.822.42-1.488.845-3.759.425-2.27.632-5.028.632-5.028.1-1.358-.865-8.676-1.83-11.491-.964-2.815-2.094-3.378-2.094-10.134 0-6.755 1.13-10.067 1.296-12.418.167-2.352-1.097-18.678-.93-23.082.166-4.405 1.928-16.492 2.46-18.645.532-2.152 1.297-7.153.19-10.034-1.108-2.88-.39-7.385-.889-6.722-.499.662-1.03 3.344-1.064 5.364-.034 2.02-.665 4.837-1.197 6.029-.532 1.192.465 7.318-.067 10.464-.531 3.146-2.161 8.842-2.161 9.935s.599 1.358 1.13 2.384c.532 1.027-.133 3.312-.133 3.312.466 3.08.1 3.08-.465 3.046-.565-.033-1.364-2.649-1.364-2.649l-.831-.397s-.665.729-.166 1.854c.499 1.126 3.392 2.65 3.06 3.047-.333.397-1.331-.033-1.331-.033s1.995 1.92 1.763 2.152c-.233.232-.599.166-.599.166s.565.662.1.96c-.466.298-1.796-.662-1.796-.662-1.829-.265-3.592-4.703-3.858-5.2-.266-.496.433-6.292.632-8.444.2-2.153-1.13-17.883-.698-18.844.432-.96.831-3.212.565-4.702z" transform="matrix(1.0801 0 0 .98295 -423.684 -509.04)"/><path stroke="#00ABAF" stroke-linecap="round" stroke-width=".5" d="m471.01 587.138 1.92-.96M487.33 573.698l.96-.96M452.77 573.698l.96-.96M468.13 587.138l-1.92-.96M486.37 573.698l-.96-.96M451.81 573.698l-.96-.96" transform="matrix(1.0801 0 0 .98295 -423.684 -509.04)"/><path stroke="#00ABAF" stroke-linecap="round" stroke-width=".768" d="M466.9 552.578c-.625 4.19-1.099 6.461-1.42 6.816-.48.532-1.568 1.535-3.11 2.219M471.97 552.578c.626 4.19 1.1 6.461 1.42 6.816.48.532 1.568 1.535 3.11 2.219" transform="matrix(1.0801 0 0 .98295 -423.684 -509.04)"/><path stroke="#00ABAF" stroke-linecap="round" stroke-width=".5" d="M456.206 558.372s.404 1.572 1.856 2.202M482.946 558.372s-.404 1.572-1.856 2.202M469.57 566.978v14.679" transform="matrix(1.0801 0 0 .98295 -423.684 -509.04)"/><path fill="#00ABAF" d="M457.045 588.806c1.98.353 8.344.737 12.525.737 2.787 0 7.016-.246 12.689-.737.997 5.567 1.087 9.98.27 13.241-.514.126-4.425.221-11.733.285-.374-.52-.629-.889-.765-1.107-.204-.328-.51-.328-.81 0-.302.328-.518.9-1.183 1.3-.533.478-10.803-.4-11.536-.193-.733.208-.733-11.962.543-13.526z" transform="matrix(1.0801 0 0 .98295 -423.684 -509.04)"/></g><g fill-rule="evenodd" fill="none" stroke="null"><path fill="#7FD5D7" d="M417.033 629.12c.433-.96.832-3.212.566-4.703-.267-1.49-.566-9.04.265-11.028.832-1.987-.166-5.662 2.062-9.272 2.228-3.61 7.317-3.478 7.317-3.478s4.79-1.556 5.454-2.517c.665-.96.333-5.133.333-5.133-1.297-.96-1.43-3.776-1.43-3.776s-.1.497-.599.166c-.499-.331-.665-3.676-.532-3.974.133-.298.698-.199.698-.199s-.797-4.371.566-6.623c1.364-2.252 4.59-2.583 5.853-2.583 1.264 0 4.49.331 5.853 2.583 1.364 2.252.566 6.623.566 6.623s.565-.099.698.199c.133.298-.033 3.643-.532 3.974-.499.331-.599-.166-.599-.166s-.133 2.816-1.43 3.776c0 0-.332 4.173.333 5.133s5.454 2.517 5.454 2.517 5.089-.132 7.317 3.478c2.228 3.61 1.23 7.285 2.062 9.272.832 1.987.532 9.538.266 11.028-.266 1.49.132 3.742.565 4.703.433.96-.898 16.69-.698 18.843.2 2.153.898 7.949.632 8.445-.266.497-2.029 4.935-3.858 5.2 0 0-1.33.96-1.796.662-.465-.298.1-.96.1-.96s-.365.066-.599-.166c-.232-.232 1.763-2.152 1.763-2.152s-.998.43-1.33.033c-.333-.398 2.56-1.921 3.06-3.047.498-1.126-.167-1.855-.167-1.855l-.831.398s-.799 2.616-1.364 2.649c-.565.033-.93.033-.465-3.047 0 0-.665-2.284-.133-3.311.531-1.027 1.13-1.292 1.13-2.384 0-1.093-1.63-6.789-2.162-9.935-.531-3.146.466-9.273-.066-10.465-.532-1.192-1.163-4.008-1.197-6.028-.033-2.02-.565-4.702-1.064-5.365-.5-.662.22 3.842-.888 6.723-1.109 2.881-.343 7.881.189 10.034.532 2.152 2.294 14.24 2.46 18.644.167 4.405-1.097 20.731-.93 23.082.166 2.351 1.296 5.663 1.296 12.419s-1.13 7.318-2.095 10.133c-.964 2.815-1.929 10.134-1.829 11.492 0 0 .586.96.61 1.523.022.563-.01 1.258.189 1.954.199.695 2.228 5.597 1.63 6.292-.6.696-4.125.762-5.355.662 0 0-.3.563-1.53.365-1.23-.199-1.064-4.505-.698-6.756.366-2.252-.7-2.814-.366-4.239.332-1.424.965-2.053 1.03-2.682.067-.63.566-7.949-.299-11.491-.864-3.544-.731-8.942.1-11.326.832-2.385-.4-3.71-1.297-6.59-.898-2.882-1.364-9.869-1.364-12.95 0-3.079-1.03-5.231-1.53-7.02-.498-1.788-.432-4.371-.432-4.371l-.399-.17-.399.17s.067 2.583-.432 4.371c-.5 1.789-1.53 3.941-1.53 7.02 0 3.081-.466 10.068-1.363 12.95-.898 2.88-2.13 4.205-1.298 6.59.832 2.384.965 7.782.1 11.326-.865 3.542-.366 10.862-.3 11.49.067.63.699 1.26 1.032 2.683.332 1.425-.732 1.987-.366 4.239.366 2.25.532 6.557-.699 6.756-1.23.198-1.53-.365-1.53-.365-1.23.1-4.755.034-5.354-.662-.599-.695 1.43-5.597 1.63-6.292.2-.696.166-1.391.19-1.954.022-.563.608-1.523.608-1.523.1-1.358-.864-8.677-1.829-11.492-.964-2.815-2.095-3.377-2.095-10.133 0-6.756 1.13-10.068 1.297-12.419.166-2.351-1.097-18.677-.931-23.082.166-4.404 1.928-16.492 2.46-18.644.533-2.153 1.298-7.153.19-10.034-1.108-2.881-.39-7.385-.889-6.723-.498.663-1.03 3.345-1.064 5.365-.033 2.02-.665 4.836-1.197 6.028-.532 1.192.466 7.319-.066 10.465s-2.162 8.842-2.162 9.935c0 1.092.599 1.357 1.13 2.384.532 1.027-.132 3.311-.132 3.311.465 3.08.1 3.08-.466 3.047-.565-.033-1.363-2.65-1.363-2.65l-.832-.397s-.665.73-.166 1.855c.5 1.126 3.392 2.65 3.06 3.047-.333.397-1.33-.033-1.33-.033s1.995 1.92 1.762 2.152c-.233.232-.599.165-.599.165s.566.663.1.96c-.465.299-1.796-.661-1.796-.661-1.829-.265-3.591-4.703-3.857-5.2-.267-.496.432-6.292.632-8.445.2-2.152-1.131-17.883-.699-18.843" transform="matrix(1.10433 0 0 1 -460.239 -576)"/><path stroke="#00ABAF" stroke-linecap="round" stroke-width=".96" d="M426.587 616.32c.933 1.724 3.16 2.587 6.68 2.587M448.586 616.32c-.933 1.724-3.16 2.587-6.68 2.587" transform="matrix(1.10433 0 0 1 -460.239 -576)"/><path stroke="#00ABAF" stroke-linecap="round" stroke-width=".576" d="M437.586 608.64v6.998" transform="matrix(1.10433 0 0 1 -460.239 -576)"/><path stroke="#00ABAF" stroke-linecap="round" stroke-width=".5" d="M437.586 623.04v14.678" transform="matrix(1.10433 0 0 1 -460.239 -576)"/><path stroke="#00ABAF" stroke-width=".5" d="m428.466 601.815 4.8.665M446.706 601.815l-4.8.665M433.266 626.946h8.871M434.226 632.64h6.951" transform="matrix(1.10433 0 0 1 -460.239 -576)"/><path fill="#00ABAF" d="M425.061 644.867c1.98.353 8.345.737 12.525.737 2.787 0 6.987-.245 12.6-.737.718 5.546.838 9.96.36 13.242-.515.126-4.426.22-11.733.285-.769-3.517-1.043-5.385-.824-5.603.329-.328-.95-.715-.811 0 .139.714-.458 5.396-1.124 5.796-.532.478-10.656-.4-11.389-.193-.733.207-.452-12.08.396-13.527z" transform="matrix(1.10433 0 0 1 -460.239 -576)"/></g></svg>