<svg xmlns="http://www.w3.org/2000/svg" width="20" height="20"><g fill="none" fill-rule="evenodd"><path d="M0 0h20v20H0z"/><path fill="#7F8383" fill-rule="nonzero" d="m18.048 16.91-4.47-4.468a6.609 6.609 0 0 0 1.423-4.109 6.62 6.62 0 0 0-1.953-4.713 6.618 6.618 0 0 0-4.714-1.953c-1.78 0-3.455.693-4.713 1.953a6.617 6.617 0 0 0-1.953 4.713 6.62 6.62 0 0 0 1.953 4.714A6.617 6.617 0 0 0 8.334 15c1.49 0 2.9-.492 4.06-1.387l4.476 4.476 1.178-1.178ZM4.799 11.869a4.963 4.963 0 0 1-1.465-3.535c0-1.336.52-2.59 1.465-3.535a4.963 4.963 0 0 1 3.535-1.465c1.336 0 2.591.52 3.535 1.466a4.96 4.96 0 0 1 1.465 3.534c0 1.336-.52 2.591-1.465 3.535a4.963 4.963 0 0 1-3.535 1.465c-1.336 0-2.59-.52-3.535-1.465Z"/></g></svg>