<svg xmlns="http://www.w3.org/2000/svg" width="24" height="24"><g fill="none" fill-rule="evenodd"><circle cx="12" cy="12" r="12" fill="#ECCAFF"/><path d="M3.999 4H20v16.001H3.999z"/><path fill="#8C00DB" d="M17.138 8.195 14.471 5.53A.668.668 0 0 0 14 5.333H7.333A.666.666 0 0 0 6.667 6v12c0 .368.298.667.666.667h9.334a.666.666 0 0 0 .666-.667V8.667a.666.666 0 0 0-.195-.472ZM10 10h1.333V8.667h1.334V10H14v1.333h-1.333v1.334h-1.334v-1.334H10V10Zm5.333 6.667H8.667V16h6.666v.667Zm0-2H8.667V14h6.666v.667Zm-1.333-6V6l2.667 2.667H14Z"/></g></svg>