<svg xmlns="http://www.w3.org/2000/svg" xml:space="preserve" width="100" height="100" fill="#00abaf" style="enable-background:new 0 0 64 64" viewBox="0 0 64 64"><path d="M59 52c2.206 0 4-1.794 4-4V32.483c0-1.168-.343-2.3-.991-3.272a5.916 5.916 0 0 0-3.938-2.547L55 26.153v-.945c3.006-1.966 5-5.356 5-9.208v-4c0-6.065-4.935-11-11-11S38 5.935 38 12v4c0 3.852 1.994 7.242 5 9.208v.945l-3.071.512a5.916 5.916 0 0 0-3.938 2.547A5.876 5.876 0 0 0 35 32.483V41h-8.181C25.863 35.334 20.934 31 15 31h-2C6.383 31 1 36.383 1 43s5.383 12 12 12H9c-2.206 0-4 1.794-4 4s1.794 4 4 4h14.181a6.986 6.986 0 0 0 3.888-1.177 6.981 6.981 0 0 0 2.554-3.07l5.046-11.775c.22-.513.331-1.055.331-1.612V48c0 2.206 1.794 4 4 4s4-1.794 4-4V34h-2v10h-4V32.483a3.892 3.892 0 0 1 2.453-3.617L51.586 41H45v2h3v18h-4.515a19.618 19.618 0 0 1-11.568-3.806l-1.188 1.609A21.337 21.337 0 0 0 43.485 63H63V53h-2v8H50V43h5v5c0 2.206 1.794 4 4 4zm-31.595-9c-.052.087-.108.169-.154.261l-.294.589c.02-.282.043-.563.043-.85h.405zM3 43c0-5.514 4.486-10 10-10h2c5.514 0 10 4.486 10 10s-4.486 10-10 10h-2C7.486 53 3 48.514 3 43zm19.858 9.048L21.382 55H15c3.006 0 5.75-1.119 7.858-2.952zM33 45.366c0 .285-.057.562-.169.823l-5.047 11.775a4.986 4.986 0 0 1-1.825 2.194 4.986 4.986 0 0 1-2.778.842H9c-1.103 0-2-.897-2-2s.897-2 2-2h13.618l6.422-12.845A2.08 2.08 0 0 1 30.91 43c1.153 0 2.09.938 2.09 2.09v.276zM34.406 43H35v2.09c0-.766-.225-1.476-.594-2.09zM41 46v2c0 1.103-.897 2-2 2s-2-.897-2-2v-2h4zm18 4c-1.103 0-2-.897-2-2v-2h4v2c0 1.103-.897 2-2 2zM40 16v-4c0-4.962 4.038-9 9-9s9 4.038 9 9v4c0 4.962-4.038 9-9 9s-9-4.038-9-9zm9 11c1.412 0 2.758-.277 4-.764v.35l-2.707 2.707 1.414 1.414 2.636-2.636 1.862.31-3.412 3.412 1.414 1.414 4.34-4.34A3.887 3.887 0 0 1 61 32.483V44h-4V34h-2v2.586l-10-10v-.35c1.242.487 2.588.764 4 .764zm5.414 14L41.795 28.381l1.862-.31L55 39.414V41h-.586z"/></svg>