<svg width="24" height="24" xmlns="http://www.w3.org/2000/svg"><g fill="none" fill-rule="evenodd"><circle fill="#B4ECF8" cx="12" cy="12" r="12"/><path d="M3.999 4h16v16.001h-16z"/><path d="m17.958 15.1-2-5.334a.668.668 0 0 0-.625-.433h-1.038c.23-.394.372-.845.372-1.333A2.67 2.67 0 0 0 12 5.333 2.67 2.67 0 0 0 9.333 8c0 .488.142.94.372 1.333H8.667a.668.668 0 0 0-.625.433l-2 5.333a.682.682 0 0 0-.042.234V18c0 .368.298.667.667.667h10.666A.666.666 0 0 0 18 18v-2.667c0-.08-.014-.159-.042-.234Zm-6.105 1.37h-1.508l-.962-1.37v1.37H8.147v-4.94h1.236v1.37l.961-1.37h1.509L10.12 14l1.733 2.47ZM10.667 8c0-.735.597-1.333 1.333-1.333s1.333.598 1.333 1.333S12.736 9.333 12 9.333A1.335 1.335 0 0 1 10.667 8Zm5.186 4.765h-2.471v2.47h1.236v-.618H14v-1.236h1.853v1.853c0 .68-.554 1.236-1.236 1.236h-1.236c-.68 0-1.234-.555-1.234-1.236v-2.47c0-.683.554-1.236 1.234-1.236h2.471v1.237Z" fill="#00B0DB" fill-rule="nonzero"/></g></svg>