<svg height="100" width="100" fill="#00abaf" xmlns="http://www.w3.org/2000/svg" viewBox="0 0 168.292 195" xml:space="preserve"><path d="M158.583 79.838V53.443c0-.019-.006-.037-.008-.056a3.195 3.195 0 0 0-.053-.545c-.008-.034-.02-.063-.027-.095a3.09 3.09 0 0 0-.131-.423c-.021-.057-.047-.11-.07-.165a2.915 2.915 0 0 0-.185-.338c-.028-.045-.053-.092-.084-.135a3.02 3.02 0 0 0-.332-.404L117.79 10.909a.019.019 0 0 0-.008-.007c-.014-.014-.029-.022-.043-.037a2.957 2.957 0 0 0-.369-.305c-.047-.033-.097-.062-.146-.092a3.474 3.474 0 0 0-.328-.179c-.056-.024-.108-.051-.167-.073a3.079 3.079 0 0 0-.458-.144c-.024-.005-.047-.013-.071-.018a3.13 3.13 0 0 0-.529-.053c-.023-.001-.045-.007-.068-.007H27.739a3.076 3.076 0 0 0-3.076 3.076v66.767H15v68.253h9.663v30.998a3.075 3.075 0 0 0 3.076 3.075h127.769a3.075 3.075 0 0 0 3.074-3.075V148.09h9.338V79.838h-9.337zm-39.907-59.279 29.464 29.81h-29.464v-29.81zm33.754 155.454H30.814v-27.924H152.43v27.924zM31.179 98.78h8.401l2.832 5.905c.96 1.968 1.68 3.552 2.448 5.376h.096c.768-2.064 1.392-3.504 2.208-5.376L49.9 98.78h8.353l-9.121 15.794 9.601 16.562h-8.449l-2.928-5.856c-1.2-2.257-1.968-3.937-2.88-5.809h-.096c-.672 1.872-1.488 3.552-2.496 5.809l-2.688 5.856h-8.353l9.361-16.37-9.025-15.986zm54.097 26.211v6.145H65.067V98.78h7.344v26.211h12.865zm14.782-7.44c-5.376-1.873-8.881-4.849-8.881-9.554 0-5.521 4.608-9.744 12.241-9.744 3.648 0 6.337.768 8.257 1.632l-1.632 5.904a15.385 15.385 0 0 0-6.769-1.536c-3.169 0-4.705 1.44-4.705 3.12 0 2.064 1.824 2.977 6.001 4.561 5.713 2.112 8.4 5.089 8.4 9.649 0 5.424-4.176 10.032-13.057 10.032-3.696 0-7.345-.96-9.169-1.968l1.488-6.049c1.968 1.009 4.992 2.017 8.112 2.017 3.36 0 5.137-1.393 5.137-3.505.002-2.015-1.534-3.168-5.423-4.559zm52.372-37.713H30.814V16.146h81.711v37.297a3.075 3.075 0 0 0 3.075 3.076h36.829v23.319z"/></svg>