<svg width="24" height="24" xmlns="http://www.w3.org/2000/svg"><g fill="none" fill-rule="evenodd"><circle fill="#B4ECF8" cx="12" cy="12" r="12"/><path d="M4 4.001h16v16.001H4z"/><path d="M18.667 8.667c0-1.103-.898-2-2-2-1.103 0-2 .897-2 2 0 .868.558 1.6 1.333 1.876v6.123a.667.667 0 0 1-1.333 0c0-1.103-.898-2-2-2-1.103 0-2 .897-2 2a.334.334 0 0 1-.667 0v-2.06a4.003 4.003 0 0 0 3.333-3.94v-4A.666.666 0 0 0 12.667 6h-1.334v-.667H10V8h1.333v-.667H12v3.332a2.67 2.67 0 0 1-2.667 2.667 2.67 2.67 0 0 1-2.666-2.667V7.333h.666V8h1.334V5.333H7.333V6H6a.666.666 0 0 0-.667.667v3.998a4.003 4.003 0 0 0 3.334 3.941v2.06c0 .919.747 1.666 1.666 1.666.92 0 1.667-.747 1.667-1.667 0-.366.3-.666.667-.666.367 0 .666.3.666.666 0 1.104.898 2 2 2 1.103 0 2-.896 2-2v-6.122a1.996 1.996 0 0 0 1.334-1.876Zm-2 .665a.667.667 0 1 1 0-1.334.667.667 0 0 1 0 1.334Z" fill="#00B0DB" fill-rule="nonzero"/></g></svg>