<svg width="16" height="16" xmlns="http://www.w3.org/2000/svg"><g fill="none" fill-rule="evenodd"><path d="M0 .002h16v16H0z"/><g fill="#00B0DB" fill-rule="nonzero"><path d="M13.333 14H12a1.334 1.334 0 0 1-1.333-1.333V3.333C10.667 2.598 11.264 2 12 2h1.333c.736 0 1.334.598 1.334 1.333v9.334c0 .735-.598 1.333-1.334 1.333ZM12 3.333v9.334h1.331l.002-9.334H12ZM8.667 14H7.333A1.334 1.334 0 0 1 6 12.667V3.333C6 2.598 6.597 2 7.333 2h1.334C9.403 2 10 2.598 10 3.333v9.334C10 13.402 9.403 14 8.667 14ZM7.333 3.333v9.334h1.332l.002-9.334H7.333ZM4 14H2.667a1.334 1.334 0 0 1-1.334-1.333V3.333C1.333 2.598 1.931 2 2.667 2H4c.736 0 1.333.598 1.333 1.333v9.334C5.333 13.402 4.736 14 4 14ZM2.667 3.333v9.334h1.331L4 3.333H2.667Z"/></g></g></svg>