<svg width="24" height="24" xmlns="http://www.w3.org/2000/svg"><g fill="none" fill-rule="evenodd"><path d="M0 0h24v24H0z"/><path d="m20.38 18.244-4.468-4.469a6.609 6.609 0 0 0 1.422-4.108 6.62 6.62 0 0 0-1.953-4.714A6.618 6.618 0 0 0 10.668 3c-1.781 0-3.455.693-4.714 1.953a6.617 6.617 0 0 0-1.953 4.714 6.62 6.62 0 0 0 1.953 4.713 6.617 6.617 0 0 0 4.714 1.953c1.489 0 2.9-.491 4.06-1.386l4.475 4.476 1.178-1.179ZM7.134 13.202a4.963 4.963 0 0 1-1.465-3.535c0-1.337.52-2.591 1.465-3.535a4.963 4.963 0 0 1 3.535-1.465c1.335 0 2.59.52 3.535 1.466a4.96 4.96 0 0 1 1.465 3.534c0 1.335-.52 2.59-1.465 3.535a4.963 4.963 0 0 1-3.535 1.465c-1.336 0-2.591-.52-3.535-1.465Z" fill="#BFC1C1" fill-rule="nonzero"/></g></svg>