<svg width="24" height="24" xmlns="http://www.w3.org/2000/svg"><g fill="none" fill-rule="evenodd"><path d="M0 0h24v24H0z"/><g fill-rule="nonzero"><path d="M7.25 2C6.562 2 6 2.563 6 3.25v17.5c0 .688.563 1.25 1.25 1.25h12.5c.688 0 1.25-.563 1.25-1.25V7l-5-5H7.25Z" fill="#E2E5E7"/><path d="M17.25 7H21l-5-5v3.75c0 .688.563 1.25 1.25 1.25Z" fill="#B0B7BD"/><path fill="#CAD1D8" d="M21 10.75 17.25 7H21zM17.875 18.875H6v.625h11.875a.627.627 0 0 0 .625-.625v-.625a.627.627 0 0 1-.625.625Z"/><path d="M20 19.25c0 .55-.337 1-.75 1H2.75c-.413 0-.75-.45-.75-1v-10c0-.55.337-1 .75-1h16.5c.413 0 .75.45.75 1v10Z" fill="#0883A1"/><path d="M6.136 16.917c.323 0 .617-.069.88-.205.263-.137.468-.33.615-.578.147-.248.22-.53.22-.848v-3.414H6.656v3.414c0 .224-.045.397-.135.522a.447.447 0 0 1-.384.186c-.185 0-.316-.051-.395-.154-.079-.102-.118-.268-.118-.496H4.42c0 .502.15.89.451 1.163.301.273.723.41 1.265.41Zm3.67-.069V15.16h.766c.606 0 1.083-.145 1.43-.436.348-.29.522-.678.522-1.164 0-.328-.08-.621-.241-.88a1.584 1.584 0 0 0-.68-.598c-.293-.14-.63-.21-1.01-.21H8.607v4.976h1.2Zm.787-2.614h-.786v-1.436h.8a.666.666 0 0 1 .512.212c.126.139.188.325.188.557 0 .212-.06.376-.183.492-.122.116-.299.175-.531.175Zm4.665 2.683c.424 0 .814-.063 1.17-.188.355-.126.625-.29.81-.496V14.19h-2.034v.824h.834v.772c-.153.14-.385.209-.698.209-.364 0-.631-.125-.801-.374-.17-.25-.255-.623-.255-1.12v-.3c.003-.475.086-.84.25-1.094a.783.783 0 0 1 .697-.383c.25 0 .444.06.581.178.137.118.226.316.267.594h1.155c-.057-.563-.257-.986-.6-1.27-.343-.283-.824-.425-1.444-.425-.424 0-.797.099-1.12.296-.322.197-.57.478-.743.844-.173.366-.26.793-.26 1.283l.004.431c.027.71.236 1.266.625 1.665.39.398.91.598 1.562.598Z" fill="#FFF"/></g></g></svg>