<svg xmlns="http://www.w3.org/2000/svg" width="43" height="150"><g fill="none" fill-rule="evenodd"><path fill="#7FD5D7" d="M.68 50.435c-.278-1.552-.59-9.418.276-11.488.866-2.07-.173-5.898 2.148-9.658s7.622-3.623 7.622-3.623 4.989-1.622 5.681-2.622c.693-1 .347-5.347.347-5.347-1.35-1-1.49-3.933-1.49-3.933s-.104.517-.623.172c-.52-.344-.693-3.829-.555-4.14.14-.31.728-.206.728-.206s-.831-4.554.59-6.9C16.823.346 20.183 0 21.5 0c1.316 0 4.677.345 6.097 2.69 1.42 2.346.59 6.9.59 6.9s.588-.103.727.207c.138.31-.035 3.795-.555 4.14-.52.344-.624-.173-.624-.173s-.138 2.933-1.49 3.933c0 0-.345 4.347.348 5.347.692 1 5.68 2.622 5.68 2.622s5.302-.137 7.623 3.623c2.32 3.76 1.282 7.588 2.148 9.658.866 2.07.554 9.936.276 11.488-.277 1.552.139 3.898.59 4.898.45 1-.936 17.387-.728 19.629.208 2.242.935 8.28.658 8.797-.277.517-2.113 5.14-4.018 5.416 0 0-1.386 1-1.871.69-.485-.311.104-1.001.104-1.001s-.38.07-.623-.172 1.836-2.242 1.836-2.242-1.04.448-1.386.034c-.346-.414 2.667-2 3.187-3.174.52-1.172-.173-1.931-.173-1.931l-.866.413s-.832 2.726-1.42 2.76c-.59.035-.97.035-.485-3.173 0 0-.693-2.38-.14-3.45.555-1.07 1.179-1.345 1.179-2.484 0-1.138-1.698-7.071-2.252-10.348-.554-3.277.485-9.66-.07-10.9-.553-1.243-1.211-4.176-1.246-6.28-.035-2.105-.59-4.899-1.109-5.589-.52-.69.229 4.002-.925 7.003-1.154 3.001-.357 8.21.197 10.452.554 2.243 2.39 14.834 2.563 19.422.173 4.588-1.143 21.594-.97 24.043.174 2.45 1.351 5.9 1.351 12.936 0 7.037-1.177 7.623-2.182 10.556-1.005 2.932-2.01 10.556-1.905 11.97 0 0 .426 4.897.634 5.621.208.725.654 1.841.75 2.772.096.93.487 1.155-.241 2.153 0 0-5.231.207-6.513 0-.587-.094-.253-1.753 0-2.679.3-1.096.595-1.602.693-3.518.181-3.533-.069-6.695 0-7.35.07-.655.589-8.28-.312-11.97-.9-3.691-.762-9.314.104-11.798.866-2.483-.416-3.863-1.351-6.864s-1.42-10.28-1.42-13.489c0-3.208-1.074-5.45-1.594-7.313-.52-1.862-.45-4.553-.45-4.553l-.416-.178-.416.178s.07 2.69-.45 4.553-1.594 4.105-1.594 7.313c0 3.209-.485 10.488-1.42 13.489-.935 3-2.217 4.38-1.351 6.864.866 2.484 1.004 8.107.104 11.798-.9 3.69-.381 11.315-.312 11.97.069.655.056 4.921.208 7.879.147 2.88.475 2.879.721 3.848.246.97-.203 1.815-.236 1.82-1.086.176-4.091.042-6.028 0-.348-.007-.88-.578-.88-1.393 0-1.898.437-1.55.88-3.915.443-2.366.658-5.238.658-5.238.104-1.414-.9-9.038-1.905-11.97-1.005-2.933-2.182-3.519-2.182-10.556 0-7.037 1.177-10.487 1.35-12.936.174-2.449-1.142-19.455-.97-24.043.174-4.588 2.01-17.18 2.564-19.422.554-2.242 1.351-7.45.197-10.452-1.154-3-.405-7.693-.925-7.003-.52.69-1.074 3.484-1.109 5.589-.035 2.104-.692 5.037-1.247 6.28-.554 1.24.485 7.623-.069 10.9s-2.252 9.21-2.252 10.348c0 1.139.624 1.415 1.178 2.484.554 1.07-.139 3.45-.139 3.45.485 3.208.105 3.208-.484 3.173-.59-.034-1.42-2.76-1.42-2.76l-.867-.413s-.693.759-.173 1.931c.52 1.173 3.533 2.76 3.187 3.174-.346.414-1.386-.034-1.386-.034s2.08 2 1.836 2.242c-.242.241-.623.172-.623.172s.589.69.104 1c-.485.31-1.87-.69-1.87-.69C2.272 88.9.436 84.277.158 83.76c-.276-.518.451-6.555.66-8.797C1.025 72.72-.36 56.334.09 55.333c.45-1 .866-3.346.589-4.898Z"/><path stroke="#00ABAF" stroke-linecap="round" stroke-width=".5" d="m23 70 2-1M40 56l1-1M4 56l1-1M20 70l-2-1M39 56l-1-1M3 56l-1-1"/><path stroke="#00ABAF" stroke-linecap="round" stroke-width=".8" d="M18.72 34c-.652 4.364-1.145 6.73-1.48 7.1-.5.554-1.633 1.599-3.24 2.31M24 34c.652 4.364 1.145 6.73 1.48 7.1.5.554 1.633 1.599 3.24 2.31"/><path stroke="#00ABAF" stroke-linecap="round" stroke-width=".5" d="M7.58 40.035s.42 1.638 1.933 2.293M35.433 40.035s-.42 1.638-1.933 2.293M21.5 49v15.29"/><path fill="#00ABAF" d="M8.453 71.737c2.063.368 8.692.768 13.047.768 2.903 0 7.309-.256 13.218-.768 1.038 5.8 1.132 10.397.282 13.793-.537.131-4.61.23-12.222.297-.39-.541-.656-.926-.797-1.154-.213-.341-.531-.341-.845 0-.314.342-.539.938-1.232 1.355-.554.498-11.253-.417-12.016-.201-.764.216-.764-12.46.565-14.09Z"/></g></svg>