<svg width="24" height="24" xmlns="http://www.w3.org/2000/svg"><g fill="none" fill-rule="evenodd"><path d="M0 0h24v24H0z"/><g fill-rule="nonzero"><path d="M7.25 2C6.562 2 6 2.563 6 3.25v17.5c0 .688.563 1.25 1.25 1.25h12.5c.688 0 1.25-.563 1.25-1.25V7l-5-5H7.25Z" fill="#E2E5E7"/><path d="M17.25 7H21l-5-5v3.75c0 .688.563 1.25 1.25 1.25Z" fill="#B0B7BD"/><path fill="#CAD1D8" d="M21 10.75 17.25 7H21zM17.875 18.875H6v.625h11.875a.627.627 0 0 0 .625-.625v-.625a.627.627 0 0 1-.625.625Z"/><path d="M20 19.25c0 .55-.337 1-.75 1H2.75c-.413 0-.75-.45-.75-1v-10c0-.55.337-1 .75-1h16.5c.413 0 .75.45.75 1v10Z" fill="#B02615"/><path d="M5.81 16.781v-1.688h.766c.606 0 1.083-.145 1.43-.436.348-.29.521-.678.521-1.164 0-.328-.08-.621-.24-.88a1.584 1.584 0 0 0-.68-.598c-.294-.14-.63-.21-1.01-.21H4.61v4.976h1.2Zm.786-2.614H5.81V12.73h.8a.666.666 0 0 1 .513.212c.125.139.188.325.188.557 0 .212-.061.376-.183.492-.122.116-.3.175-.532.175Zm4.208 2.614c.43-.002.82-.105 1.17-.31.35-.203.621-.486.814-.847.192-.36.289-.77.289-1.225v-.23a2.549 2.549 0 0 0-.3-1.221 2.102 2.102 0 0 0-.821-.844c-.351-.2-.747-.3-1.186-.3H9.167v4.977h1.637Zm-.02-.923h-.418v-3.127h.404c.353 0 .622.122.806.366.185.243.277.606.277 1.087v.215c0 .483-.092.847-.277 1.092-.184.245-.449.367-.793.367Zm4.108.923V14.8h1.934v-.923h-1.934v-1.145h2.129v-.926h-3.33v4.976h1.2Z" fill="#FFF"/></g></g></svg>