<svg xmlns="http://www.w3.org/2000/svg" width="16" height="16"><g fill="none" fill-rule="evenodd"><path d="M0 .001h16v16H0z"/><path fill="#BFC1C1" fill-rule="nonzero" d="M11.6 9.2c-.72 0-1.36.325-1.8.829L6.745 8.502a2.336 2.336 0 0 0 0-1.004L9.8 5.97c.44.504 1.08.829 1.8.829 1.323 0 2.4-1.077 2.4-2.4C14 3.076 12.923 2 11.6 2a2.403 2.403 0 0 0-2.4 2.4c0 .172.02.34.055.502L6.2 6.429A2.387 2.387 0 0 0 4.4 5.6 2.403 2.403 0 0 0 2 8c0 1.323 1.077 2.4 2.4 2.4.72 0 1.36-.326 1.8-.83l3.055 1.528c-.035.162-.055.33-.055.502 0 1.323 1.077 2.4 2.4 2.4s2.4-1.077 2.4-2.4-1.077-2.4-2.4-2.4Z"/></g></svg>