<svg xmlns="http://www.w3.org/2000/svg" width="16" height="16"><g fill="none" fill-rule="evenodd"><path d="M0 0h16v16H0z"/><g fill="#00ABAF" fill-rule="nonzero"><path d="M12.667 2.667h-.666v2H4v-2h-.667c-.736 0-1.333.597-1.333 1.333v9.333c0 .736.597 1.334 1.333 1.334h9.333c.736 0 1.334-.598 1.334-1.334V4c0-.736-.598-1.333-1.334-1.333Zm-4.666 4A1.666 1.666 0 1 1 8 10a1.666 1.666 0 0 1 0-3.333Zm-2.5 6.666c0-1.534.966-2.5 2.5-2.5s2.5.966 2.5 2.5h-5Z"/><path d="M9.334 2a1.333 1.333 0 0 0-2.667 0H5.334v2h5.333V2H9.334Z"/></g></g></svg>